<?xml version="1.0" encoding="UTF-8" standalone="no"?>
<svg
   xmlns:dc="http://purl.org/dc/elements/1.1/"
   xmlns:cc="http://creativecommons.org/ns#"
   xmlns:rdf="http://www.w3.org/1999/02/22-rdf-syntax-ns#"
   xmlns:svg="http://www.w3.org/2000/svg"
   xmlns="http://www.w3.org/2000/svg"
   xmlns:sodipodi="http://sodipodi.sourceforge.net/DTD/sodipodi-0.dtd"
   xmlns:inkscape="http://www.inkscape.org/namespaces/inkscape"
   width="839"
   height="1132"
   id="svg4136"
   version="1.1"
   inkscape:version="0.91 r13725"
   sodipodi:docname="bird-308096.svg">
  <metadata
     id="metadata4175">
    <rdf:RDF>
      <cc:Work
         rdf:about="">
        <dc:format>image/svg+xml</dc:format>
        <dc:type
           rdf:resource="http://purl.org/dc/dcmitype/StillImage" />
      </cc:Work>
    </rdf:RDF>
  </metadata>
  <defs
     id="defs4173" />
  <sodipodi:namedview
     pagecolor="#ffffff"
     bordercolor="#666666"
     borderopacity="1"
     objecttolerance="10"
     gridtolerance="10"
     guidetolerance="10"
     inkscape:pageopacity="0"
     inkscape:pageshadow="2"
     inkscape:window-width="1366"
     inkscape:window-height="705"
     id="namedview4171"
     showgrid="false"
     inkscape:object-paths="true"
     inkscape:snap-smooth-nodes="true"
     inkscape:snap-bbox="true"
     inkscape:object-nodes="true"
     inkscape:zoom="0.16803156"
     inkscape:cx="-524.77868"
     inkscape:cy="151.62317"
     inkscape:window-x="-8"
     inkscape:window-y="32"
     inkscape:window-maximized="1"
     inkscape:current-layer="layer2" />
  <g
     inkscape:groupmode="layer"
     id="layer1"
     inkscape:label="Layer 1"
     sodipodi:insensitive="true"
     style="display:none">
    <g
       style="fill-rule:evenodd;stroke:none;stroke-width:0.5"
       id="g4140">
      <g
         style="fill:#ffffff;stroke:none"
         id="g4142">
        <path
           inkscape:connector-curvature="0"
           d="m 426.5,25 1.5,-0.5 3,0 -0.2,0.3 -0.3,0.2 -0.3,0.2 -0.2,0.3 -0.2,0.3 -0.3,0.2 -0.3,0.2 -0.2,0.3 -0.2,0.3 -0.3,0.2 -0.3,0.2 -0.2,0.3 -0.2,0.3 -0.3,0.2 -0.3,0.2 -0.2,0.3 -0.2,0.3 -0.3,0.2 -0.3,0.2 -0.2,0.3 -0.2,0.3 -0.3,0.2 -0.3,0.2 -0.2,0.3 -0.2,0.3 q -0.29999,0.2 -5.8,5.7 -5.50001,5.5 -17.2,20.7 -11.8,15.3 -21,32.6 l -9.3,17.2 -0.5,1 -0.5,1 -0.5,1 -0.5,1 0.3,0.8 q 0.20001,0.7 0.40002,0.39999 l 0.3,-0.2 0.3,-0.2 0.2,-0.3 0.2,-0.3 0.3,-0.2 0.3,-0.2 0.2,-0.3 0.2,-0.3 0.3,-0.2 0.5,-1 0.5,-1 12,-14 q 12,-14 22.7,-24.2 10.8,-10.3 21.8,-17.8 11,-7.5 40.5,-13 29.5,-5.5 52,-7 22.5,-1.5 36,-0.5 13.5,1 16.5,1.5 l 3,0.5 2,0.3 2,0.2 11.5,3.8 q 11.5,3.7 13,4.2 l 1.5,0.5 1,0.5 1,0.5 1,0.5 1,0.5 1,0.5 1,0.5 0.2,0.3 0.3,0.2 0.3,0.2 0.2,0.3 -1,0.5 -1,0.5 -1.5,0.5 -1.5,0.5 -1.5,0.5 q -1.5,0.5 -14,5 -12.5,4.5 -32,14 -19.5,9.5 -38,22 -18.5,12.5 -32.7,26.2 -14.3,13.8 -26,29 -11.8,15.3 -22,34 -10.3,18.8 -17.8,40.8 -7.5,22 -11.5,45 -4,23 -4.5,47 -0.5,24 0.5,36 l 1,12 0.3,1.5 0.2,1.5 4.8,24.5 q 4.7,24.5 12.7,47.5 8,23 18.3,42.8 10.2,19.7 20.7,34.7 10.5,15 23.5,29 13,14 59,17.5 46,3.5 52,3.8 l 6,0.2 0,0.5 2,0.5 2,0.5 46.2,10.3 q 46.3,10.2 57,24 10.8,13.7 11,14 l 0.3,0.2 0.3,0.2 0.2,0.3 0.2,0.3 0.3,0.2 0.3,0.2 0.2,0.3 0.2,0.3 0.3,0.2 0.3,0.2 0.2,0.3 0.2,0.3 0.3,0.2 0.3,0.2 0.2,0.3 0.2,0.3 0.3,0.2 0.3,0.2 0.2,0.3 -2,0.5 -2,0.5 -3,0.5 q -3,0.5 -5.5,1 -2.5,0.5 -6.5,-0.5 -4,-1 -13.8,-8.3 -9.7,-7.2 -19,-13 l -9.2,-5.7 -1,-0.5 -1,-0.5 -1,-0.5 -1,-0.5 -3,0 1,0.5 1,0.5 0.2,0.3 0.3,0.2 0.3,0.2 0.2,0.3 1,0.5 1,0.5 0.2,0.3 0.3,0.2 0.3,0.2 0.2,0.3 0.2,0.3 0.3,0.2 0.3,0.2 0.2,0.3 4.5,4.5 q 4.5,4.5 4.7,4.8 l 0.3,0.2 0.3,0.2 0.2,0.3 0.2,0.3 0.3,0.2 0.5,1 0.5,1 0.5,1 0.5,1 0.3,0.2 0.2,0.3 0.2,0.3 0.3,0.2 0,2 -0.3,-0.2 -0.2,-0.3 -4,-0.5 q -4,-0.5 -13.5,-1.5 -9.5,-1 -26.5,-1 -17,0 -25,2.5 -8,2.5 -7.8,9.2 0.29999,6.8 2.6,11 2.2,4.3 6.7,8.3 l 4.5,4 1,0.5 1,0.5 0.2,0.3 0.3,0.2 0.3,0.2 0.2,0.3 1,0.5 1,0.5 0.2,0.3 0.3,0.2 0.3,0.2 0.2,0.3 -2.5,0.5 -2.5,0.5 -3,0.5 q -3,0.5 -5.5,1 l -2.5,0.5 -1.5,0.3 -1.5,0.2 -1,0.2 q -1,0.29999 -18,3.3 -17,3.00001 -22.2,-6.3 l -5.3,-9.2 -0.5,-1 -0.5,-1 -0.5,-1 -0.5,-1 -0.5,-1 -0.5,-1 -0.5,1.5 -0.5,1.5 -0.5,2 -0.5,2 -4.7,11.2 q -4.8,11.3 -10,17 -5.3,5.8 -10.6,8.6 -5.2,2.7 -10.7,3.4 -5.5,0.79999 -6.7,8.8 -1.3,8 -6.8,17 -5.5,9 -15.2,18.8 -9.8,9.7 -19.3,16.2 -9.5,6.5 -9.7,6.8 l -0.3,0.2 -0.3,0.2 -0.2,0.3 -1,0.5 -1,0.5 -1,0.5 -1,0.5 -1,0.5 -1,0.5 -0.2,0.3 -0.3,0.2 -0.3,0.2 -0.2,0.3 3,0 1.5,-0.5 1.5,-0.5 1.5,-0.5 1.5,-0.5 30,-9 q 30,-9 42.5,-6.5 12.5,2.5 81.5,19.8 69,17.2 69.5,18.4 0.5,1.3 0.70001,1.6 l 0.3,0.2 0,8 -0.3,0.5 -0.2,0.5 -0.2,1 -0.3,1 -0.5,1 -0.5,1 -8.3,9.8 q -8.2,9.7 -10.7,12.2 -2.5,2.5 -2.7,2.8 l -0.3,0.2 -0.3,0.2 -0.2,0.3 -0.2,0.3 -0.3,0.2 -0.3,0.2 -0.2,0.3 -0.2,0.3 -0.3,0.2 -0.3,0.2 -0.2,0.3 -0.2,0.3 -0.3,0.2 -0.3,0.2 -0.2,0.3 -0.2,0.3 -0.3,0.2 -0.3,0.2 -0.2,0.3 -0.2,0.3 -0.3,0.2 -0.3,0.2 -0.2,0.3 -0.2,0.3 -0.3,0.2 -0.3,1 -0.2,1 -2,0 0.2,-1 0.3,-1 0.3,-0.2 0.2,-0.3 0.2,-0.3 0.3,-0.2 0.3,-0.2 0.2,-0.3 0.2,-0.3 0.3,-0.2 0.5,-1 0.5,-1 0.5,-1 0.5,-1 0.3,-0.2 0.2,-0.3 0.2,-0.3 0.3,-0.2 0.5,-1 q 0.5,-1 2,-4 1.5,-3 1.5,-10.5 0,-7.5 -2.7,-10.3 -2.8,-2.7 -17.3,-3.2 -14.5,-0.5 -25.5,1.5 -11,2 -21,6.5 -10,4.5 -14.8,9.8 -4.7,5.2 -5.2,9.7 -0.5,4.5 1.2,6.7 1.8,2.3 7.8,5.8 l 6,3.5 1,0.5 1,0.5 1.5,0.5 1.5,0.5 0.2,0.3 0.3,0.2 0.3,0.2 0.2,0.3 -16.5,0 q -16.5,0 -22,-1 -5.5,-1 -14.5,-4.5 l -9,-3.5 -1,-0.5 -1,-0.5 -0.2,-0.3 -0.3,-0.2 -0.3,-0.2 -0.2,-0.3 0.2,-0.3 0.3,-0.2 0.5,-1 0.5,-1 0.3,-0.2 0.2,-0.3 0.2,-0.3 0.3,-0.2 0.5,-1 q 0.5,-1 9.8,-10.2 9.2,-9.3 25.7,-19.3 l 16.5,-10 1,-0.5 1,-0.5 1,-0.5 1,-0.5 1,-0.5 1,-0.5 1,-0.5 1,-0.5 -9,-0.5 q -9,-0.5 -30.5,-1 -21.5,-0.5 -35,2 -13.5,2.5 -33,10 l -19.5,7.5 -1,0.5 -1,0.5 -1,0.5 -1,0.5 -1,0.5 -1,0.5 -0.2,0.3 -0.3,0.2 0,-2 0.3,-0.2 0.2,-0.3 0.2,-0.3 0.3,-0.2 0.3,-0.2 0.2,-0.3 0.2,-0.3 0.3,-0.2 0.3,-0.2 0.2,-0.3 0.2,-0.3 0.3,-0.2 0.3,-0.2 0.2,-0.3 0.2,-0.3 0.3,-0.2 0.3,-0.2 0.2,-0.3 0.2,-0.3 0.3,-0.2 0.5,-1 q 0.5,-1 3,-4 l 2.5,-3 0.3,-0.2 0.2,-0.3 0.2,-0.3 0.3,-0.2 0.3,-0.2 0.2,-0.3 0.2,-0.3 0.3,-0.2 0.3,-0.2 0.2,-0.3 0.2,-0.3 0.3,-0.2 0.3,-0.2 0.2,-0.3 0.2,-0.3 0.3,-0.2 0.3,-0.2 0.2,-0.3 0.2,-0.3 0.3,-0.2 0.3,-0.2 0.2,-0.3 -2,0 -1,0.5 -1,0.5 -1,0.5 -1,0.5 -1,0.5 -1,0.5 -1.5,0.5 q -1.5,0.5 -2.5,1 -1,0.5 -16.5,4.5 -15.5,4 -52.5,4 -37,0 -43.5,2 -6.5,2 -20.5,10.5 l -14,8.5 -1,0.5 -1,0.5 -1,0.5 -1,0.5 -0.2,0.3 -0.3,0.2 -0.3,0.2 -0.2,0.3 -1,0.3 -1,0.2 0.2,-3 0.3,-3 0.5,-4 q 0.5,-4 2.5,-14.5 2,-10.5 5.7,-18.7 3.8,-8.3 9.3,-12.8 5.5,-4.5 17.5,-9 l 12,-4.5 2,-0.5 2,-0.5 0.2,-0.3 0.3,-0.2 0.3,-0.2 0.2,-0.3 -7,-0.5 q -7,-0.5 -11.5,-0.79999 l -4.5,-0.2 0.2,-1 0.3,-1 0.5,-1 0.5,-1 0.5,-1 0.5,-1 0.5,-1 0.5,-1 0.3,-0.2 q 0.20001,-0.29999 2.4,-3 2.3,-2.8 10,-8 7.8,-5.3 19.3,-8 11.5,-2.8 11.7,-5.8 0.29999,-3 3.8,-14.5 3.50001,-11.5 10.5,-23.5 6.99999,-12 16.7,-23.2 l 9.8,-11.3 0.2,-0.3 0.3,-0.2 0.3,-0.2 0.2,-0.3 0.2,-0.3 0.3,-0.2 0.3,-0.2 0.2,-0.3 0.2,-0.3 0.3,-0.2 0.3,-0.2 0.2,-0.3 0.2,-0.3 0.3,-0.2 0.3,-0.2 0.2,-0.3 0.2,-0.3 0.3,-0.2 0.3,-0.2 0.2,-0.3 0.2,-0.3 0.3,-0.2 0,-2 -0.3,0.2 -0.2,0.3 -0.2,0.3 -0.3,0.2 -0.3,0.2 -0.2,0.3 -1,0.5 -1,0.5 -0.2,0.3 -0.3,0.2 -0.3,0.2 -0.2,0.3 -1,0.5 -1,0.5 -0.2,0.3 -0.3,0.2 -0.3,0.2 -0.2,0.3 -12.5,10.5 q -12.5,10.5 -22.3,22.8 -9.7,12.2 -16,22 -6.2,9.7 -21.4,23.4 -15.3,13.8 -27.3,28.8 -12,15 -21,32 -9,17 -14,39.5 -5,22.5 -7,44 -2,21.5 -1.5,38.5 0.5,17 0.79999,20 l 0.2,3 4.2,24 q 4.3,24 12.8,49.5 8.5,25.5 21.2,51.7 12.8,26.3 19,37 6.3,10.8 6.8,11.8 l 0.5,1 0.5,1 0.5,1 0.5,1 0.5,1 0.3,0.2 0.2,0.3 0.2,0.3 0.3,0.2 0.3,0.2 0.2,0.3 0.2,0.3 0.3,0.2 0.3,1 0.2,1 -1,-0.2 -1,-0.3 -0.2,-0.3 -0.3,-0.2 -0.3,-0.2 -0.2,-0.3 -0.2,-0.3 -0.3,-0.2 -0.3,-0.2 -0.2,-0.3 -1,-0.5 -1,-0.5 -0.2,-0.3 -0.3,-0.2 -0.3,-0.2 -0.2,-0.3 -1,-0.5 -1,-0.5 -0.2,-0.3 q -0.29999,-0.2 -4.6,-3 -4.2,-2.7 -26.7,-19.2 -22.5,-16.5 -40.3,-34.2 -17.7,-17.8 -29.7,-34.8 -12,-17 -20,-34 -8,-17 -13,-35 l -5,-18 -0.5,-2.5 -0.5,-2.5 0,24 q 0,24 3,36 3,12 3.5,13.5 l 0.5,1.5 0.5,1 0.5,1 0.5,1.5 0.5,1.5 0,2 -0.3,-0.2 -0.2,-0.3 -0.2,-0.3 -0.3,-0.2 -0.3,-0.2 -0.2,-0.3 -0.2,-0.3 -0.3,-0.2 -0.3,-0.2 -0.2,-0.3 -0.2,-0.3 -0.3,-0.2 -0.3,-0.2 -0.2,-0.3 -0.2,-0.3 -0.3,-0.2 -0.3,-0.2 -0.2,-0.3 -0.2,-0.3 -0.3,-0.2 -0.3,-0.2 -0.2,-0.3 -1,-0.5 q -1,-0.5 -9,-8.5 -8,-8 -22.8,-25.7 l -14.7,-17.8 -0.3,-0.2 -0.2,-0.3 -0.2,-0.3 -0.3,-0.2 -0.5,-1 -0.5,-1 -0.3,-0.2 -0.2,-0.3 -0.2,-0.3 -0.3,-0.2 -0.5,-1 -0.5,-1 -0.5,0 -0.2,-0.5 q -0.3,-0.5 -9.8,-16.5 -9.5,-16 -10,-32.5 -0.5,-16.5 0.5,-25.5 1,-9 6,-31 5,-22 15,-48 l 10,-26 0.5,-1 0.5,-1 0.5,-1 0.5,-1 0.5,-1 0.5,-1 0,-2 -0.3,0.2 -0.2,0.3 -0.2,0.3 -0.3,0.2 -0.5,1 -0.5,1 -0.3,0.2 -0.2,0.3 -0.2,0.3 -0.3,0.2 -0.5,1 -0.5,1 -0.3,0.2 -0.2,0.3 -0.2,0.3 -0.3,0.2 -0.3,0.2 -0.2,0.3 -12.8,20.3 q -12.7,20.2 -20.2,36.7 -7.5,16.5 -11.5,31 -4,14.5 -4.5,18 -0.5,3.5 -1,8 l -0.5,4.5 -0.5,2.5 -0.5,2.5 -0.5,-1 -0.5,-1 -0.5,-2 -0.5,-2 -0.5,-1.5 q -0.5,-1.5 -7.5,-26.5 l -7,-25 -0.5,-1.5 -0.5,-1.5 -0.5,0 -0.2,-2 q -0.3,-2 -3.3,-12.5 -3,-10.5 0,-15.5 3,-5 13.7,-16.8 10.8,-11.7 22,-21 l 11.3,-9.2 0.3,-0.2 0.2,-0.3 1,-0.5 1,-0.5 1,-0.5 1,-0.5 0.2,-0.3 0.3,-0.2 0.3,-0.2 0.2,-0.3 1,-0.5 1,-0.5 -4,0 -2.5,0.5 -2.5,0.5 -10,2 q -10,2 -12.5,2.5 l -2.5,0.5 -2.5,0.5 -2.5,0.5 -0.2,0.3 -0.3,0.2 -0.3,0.2 -0.2,0.3 -0.2,0.3 -0.3,0.2 -0.3,0.2 -0.2,0.3 -0.2,0.3 -0.3,0.2 -0.3,0.2 -0.2,0.3 -0.2,0.3 -0.3,0.2 -0.3,0.2 -0.2,0.3 -1,0.3 -1,0.2 0.2,-1 0.3,-1 0.3,-0.2 0.2,-0.3 0.2,-0.3 0.3,-0.2 0.3,-0.2 0.2,-0.3 1,-0.5 1,-0.5 0.2,-0.3 0.3,-0.2 0.3,-0.2 0.2,-0.3 0.2,-0.3 0.3,-0.2 0.3,-0.2 0.2,-0.3 0.2,-0.3 0.3,-0.2 0.3,-0.2 0.2,-0.3 0.2,-0.3 0.3,-0.2 0.3,-0.2 0.2,-0.3 0.2,-0.3 0.3,-0.2 0.3,-0.2 0.2,-0.3 0.2,-0.3 0.3,-0.2 0.3,-0.2 q 0.2,-0.29999 1.7,-1.8 1.5,-1.50001 21,-18 19.5,-16.49999 42,-32 22.5,-15.50001 50.5,-29.5 l 28,-14 1.5,-0.5 1.5,-0.5 1.5,-0.5 1.5,-0.5 0.2,-0.3 0.3,-0.2 0.3,-0.2 0.2,-0.3 -3,0 -2,0.5 -2,0.5 -2,0.5 q -2,0.5 -13,3 -11,2.5 -42,7.5 -31,5 -56.5,5.5 -25.5,0.5 -34.5,-0.5 l -9,-1 -1,-0.5 -1,-0.5 1,-0.5 1,-0.5 1,-0.5 1,-0.5 1.5,-0.5 1.5,-0.5 1,-0.5 q 1,-0.5 8,-4 l 7,-3.5 1,-0.5 1,-0.5 1.5,-0.5 1.5,-0.5 1,-0.5 1,-0.5 0.2,-0.3 0.3,-0.2 0.3,-0.2 0.2,-0.3 -22,0 q -15,0 -26.5,-2 -11.5,-2 -27,-7.7 l -15.5,-5.8 0,-0.5 -1,-0.5 -1,-0.5 -1,-0.5 q -1,-0.5 -4.8,-2.8 -3.7,-2.2 -6.7,-13.2 -3,-11 -3,-31 l 0,-20 0.5,-1 0.5,-1 0.3,0.2 0.2,0.3 1,0.5 1,0.5 0.2,0.3 0.3,0.2 0.3,0.2 0.2,0.3 20,11 q 20,11 42.5,20.5 22.5,9.5 24,10 l 1.5,0.5 1,0.5 1,0.5 1.5,0.5 1.5,0.5 2,0 -0.2,-0.3 -0.3,-0.2 -0.3,-0.2 -0.2,-0.3 -1,-0.5 -1,-0.5 -0.2,-0.3 -0.3,-0.2 -0.3,-0.2 -0.2,-0.3 -1,-0.5 -1,-0.5 -1,-0.5 -1,-0.5 -1,-0.5 q -1,-0.5 -14.5,-8.5 -13.5,-8 -39,-25 -25.5,-17 -26.7,-19.3 -1.3,-2.2 -5.3,-19.2 -4,-17 -4.5,-40 -0.5,-23 1,-33 l 1.5,-10 0.5,-2.5 0.5,-2.5 0.5,-1.5 0.5,-1.5 0.3,0.2 0.2,0.3 0.2,0.3 0.3,0.2 0.5,1 0.5,1 0.5,1 0.5,1 0.3,0.2 0.2,0.3 0.2,0.3 0.3,0.2 9.7,13.8 q 9.8,13.7 25.8,29.7 16,16 17,16.5 l 1,0.5 0.2,0.3 0.3,0.2 0.3,0.2 0.2,0.3 0.2,0.3 0.3,0.2 0.3,0.2 0.2,0.3 0.2,0.3 0.3,0.2 0.3,0.2 0.2,0.3 0.2,0.3 0.3,0.2 0.3,0.2 0.2,0.3 0.2,0.3 0.3,0.2 0.3,0.2 0.2,0.3 0.2,0.3 0.3,0.2 0,-2 -0.5,-1 -0.5,-1 -0.3,-0.2 -0.2,-0.3 -0.2,-0.3 -0.3,-0.2 -0.3,-0.2 -0.2,-0.3 -0.2,-0.3 -0.3,-0.2 -0.3,-0.2 -0.2,-0.3 -0.2,-0.3 -0.3,-0.2 -0.3,-0.2 -0.2,-0.3 -0.2,-0.3 -0.3,-0.2 -0.5,-1 q -0.5,-1 -3.2,-4.2 -2.8,-3.3 -13,-18.6 -10.3,-15.2 -16.8,-30.2 -6.5,-15 -7.5,-21.5 -1,-6.5 20.5,-70.5 l 21.5,-64 0.5,-1.5 0.5,-1.5 0.5,-1.5 0.5,-1.5 0.5,2 0.5,2 2.5,25.5 q 2.5,25.5 8,47 5.5,21.5 13.2,39.7 7.8,18.3 18,34.6 10.3,16.2 21.3,28.7 11,12.5 18.3,19.3 7.2,6.7 7.4,7 l 0.3,0.2 0.3,0.2 0.2,0.3 0.2,0.3 0.3,0.2 0.3,0.2 0.2,0.3 0.2,0.3 0.3,0.2 0.3,0.2 0.2,0.3 1,0.5 1,0.5 0.2,0.3 0.3,0.2 0.3,0.2 0.2,0.3 0.2,0.3 0.3,0.2 0.3,0.2 0.2,0.3 0.2,0.3 0.3,0.2 0,-2 -0.5,-1 -0.5,-1 -0.3,-0.2 -0.2,-0.3 -0.2,-0.3 -0.3,-0.2 -0.3,-0.2 -0.2,-0.3 -0.2,-0.3 -0.3,-0.2 -0.3,-0.2 -0.2,-0.3 -0.2,-0.3 -0.3,-0.2 -0.3,-0.2 -0.2,-0.3 -0.2,-0.3 -0.3,-0.2 -0.5,-1 q -0.5,-1 -4.5,-6 -4,-5 -14.5,-21.5 -10.5,-16.5 -18.5,-35 -8,-18.5 -11,-30.5 -3,-12 -3.5,-43.5 -0.5,-31.5 0.8,-45.5 l 1.2,-14 0.2,-0.5 q 0.3,-0.5 3.3,-16 3,-15.5 9,-32 l 6,-16.5 0.5,-1.5 0.5,-1.5 0.5,-1 0.5,-1 0.5,-1.5 0.5,-1.5 2.5,33 q 2.5,33 4,40.5 1.5,7.5 2,9 l 0.5,1.5 0.5,2 0.5,2 0.5,1.5 0.5,1.5 0,-21 q 0,-16 2,-30.5 2,-14.5 7,-31.5 5,-17 20.5,-35.5 15.5,-18.5 30.5,-32 15,-13.5 33.3,-25.7 l 18.2,-12.3 1,-0.5 1,-0.5 1,-0.5 1,-0.5 0.2,-0.3 0.3,-0.2 0.3,-0.2 0.2,-0.3 1,-0.3 1,-0.2 -0.2,1 -0.3,1 -0.5,1.5 -0.5,1.5 -0.5,1.5 -0.5,1.5 -8,27 q -8,27 -12,50.5 -4,23.5 -4,54 0,30.5 0.5,35 l 0.5,4.5 0.5,2.5 0.5,2.5 2.5,-25.5 q 2.5,-25.5 8,-49.5 5.5,-24 15,-50.5 9.5,-26.5 19.8,-46.3 10.2,-19.7 44.7,-42.7 34.5,-23 54.5,-33 20,-10 21.5,-10.5 l 1.5,-0.5 1,-0.5 1,-0.5 1.5,-0.5 z m 39.5,549 2,0.5 1,0.5 1,0.5 2,0.5 2,0.5 1,0.5 1,0.5 -2,0.5 -2,0.5 -1.5,0.5 -1.5,0.5 -10.5,0.5 q -10.5,0.5 -26.5,-1 -16,-1.5 -39.5,11 l -23.5,12.5 -1,0.5 -1,0.5 -1,0.5 -1,0.5 -1,0.5 -1,0.5 -3,0 1,-0.5 1,-0.5 0.2,-0.3 0.3,-0.2 0.3,-0.2 0.2,-0.3 0.2,-0.3 0.3,-0.2 0.3,-0.2 0.2,-0.3 1,-0.5 1,-0.5 0.2,-0.3 0.3,-0.2 0.3,-0.2 0.2,-0.3 0.2,-0.3 0.3,-0.2 3.3,-2 q 3.2,-2 6.7,-5.8 3.5,-3.7 16.5,-14.2 13,-10.5 16.8,-15.8 3.7,-5.2 4.7,-10.2 1,-5 -2.5,-21.5 -3.5,-16.5 -8,-32.5 -4.5,-16 -9,-46 -4.5,-30 -4.2,-31.8 0.20001,-1.7 12,43 11.7,44.8 18.7,62.3 7,17.5 11.3,24.7 4.2,7.3 8.2,11.3 4,4 13,8 9,4 11,4.5 z m -288.2,4.2 21.2,10.3 1,0.5 1,0.5 1,0.5 1,0.5 1,0.5 1,0.5 1,0 0.2,-0.3 0.3,-0.2 0,-2 -0.3,-0.2 -0.2,-0.3 -0.2,-0.3 -0.3,-0.2 -0.3,-0.2 -0.2,-0.3 -0.2,-0.3 -0.3,-0.2 -0.3,-1.5 -0.2,-1.5 -1,0 q -1,0 -9.2,-14 -8.3,-14 -9.3,-18.5 -1,-4.5 4.5,-13 l 5.5,-8.5 0.3,-0.2 0.2,-0.3 0.2,-0.3 0.3,-0.2 0.3,-0.2 0.2,-0.3 0.2,-0.3 0.3,-0.2 0.3,-0.2 0.2,-0.3 2,0 0.2,0.3 0.3,0.2 0.3,0.2 0.2,0.3 0.2,0.3 0.3,0.2 0.3,0.2 0.2,0.3 14.2,14.3 q 14.3,14.2 14.6,15.2 0.2,1 14.2,10.2 14,9.3 29,16.3 15,7 17.5,8 2.5,1 4.5,1.5 l 2,0.5 1,0.5 1,0.5 0.2,0.3 0.3,0.2 0.3,0.2 0.2,0.3 1.5,0.5 1.5,0.5 -0.2,0.3 -0.3,0.2 -0.3,0.2 -0.2,0.3 -0.2,0.3 -0.3,0.2 -0.3,0.2 -0.2,0.3 -0.2,0.3 -0.3,0.2 -0.3,0.2 -0.2,0.3 -0.2,0.3 -0.3,0.2 -0.3,0.2 -0.2,0.3 -1,0.5 -1,0.5 -0.2,0.3 q -0.29999,0.20001 -0.59998,0.40002 -0.20001,0.29999 -8.2,4.3 -7.99999,4.00001 -24.5,9 -16.50001,4.99999 -40,9 -23.49999,4.00001 -48.5,6.3 l -25,2.2 0.2,-1 0.3,-1 0.3,-0.2 0.2,-0.3 -0.2,-0.3 -0.3,-0.2 -0.3,-0.2 -0.2,-0.3 0.2,-0.3 q 0.3,-0.20001 2,-3 l 1.8,-2.7 0.2,-0.3 0.3,-0.2 0.3,-1 0.2,-1 -15.5,-0.2 q -15.5,-0.29999 -23,-0.79999 -7.5,-0.5 -24.5,-3 -17,-2.5 -34.5,-7.8 -17.5,-5.2 -20.7,-23.2 l -3.3,-18 0,-7 0.3,0.2 0.2,0.3 2,0.5 2,0.5 0.2,0.3 0.3,0.2 0.3,0.2 0.2,0.3 25,11.5 q 25,11.5 44.5,18 19.5,6.5 34.5,10 15,3.5 19,4 l 4,0.5 3,0.3 3,0.2 -0.2,-1 -0.3,-1 -0.3,-0.2 -0.2,-0.3 -0.2,-0.3 -0.3,-0.2 -0.3,-0.2 -0.2,-0.3 -1,-0.5 -1,-0.5 -0.2,-0.3 -0.3,-0.2 -0.3,-0.2 -0.2,-0.3 -1,-0.5 q -1,-0.5 -3.2,-1.8 -2.3,-1.2 -41.6,-24 -39.2,-22.7 -50.7,-30.7 -11.5,-8 -20.7,-16.3 -9.3,-8.2 -12.3,-19.7 -3,-11.5 -4.5,-23 -1.5,-11.5 8.5,-3.5 10,8 24.5,20 14.5,12 37.2,28.2 22.8,16.3 25.8,17.8 3,1.5 7.5,4.5 4.5,3 12.3,7.7 7.7,4.8 29,15 z M 187,482 q 0,-1 1,-1 1,0 1,1 l 0,1 -1,0 q -1,0 -1,-1 z m -94,11.2 1,0.3 0.2,0.3 0.3,0.2 0.3,1 0.2,1 -1,-0.2 -1,-0.3 -0.2,-0.3 -0.3,-0.2 -0.3,-1 Q 92,493 93,493.20001 Z m 30,96.8 q 0,-1 1,-1 l 1,0 0,2 -1,0 q -1,0 -1,-1 z m 9.2,37.2 q 0.3,-0.20001 0.60001,0 0.2,0.29999 -0.3,0.29999 -0.5,0 -0.3,-0.29999 z"
           id="svg_1"
           style="stroke:none" />
        <path
           inkscape:connector-curvature="0"
           d="m 837,287.8 2,0.2 0,844 -442,0 -0.2,-1 -0.3,-1 -0.5,0 -0.2,-1 -0.3,-1 -0.3,-0.2 -0.2,-0.3 -1.5,-0.3 q -1.5,-0.1999 -1,-1.3999 l 0.5,-1.3 -0.2,-0.3 -0.3,-0.2 -0.3,-0.2 -0.2,-0.3 -0.2,-0.3 -0.3,-0.2 -0.3,-0.2 q -0.20001,-0.3 -12.2,-19.3 -11.99999,-18.9999 -22,-37.5 -10.00001,-18.5 -17.2,-34.2 -7.3,-15.8 -13.3,-32.3 -6,-16.5 -6.7,-18.7 -0.79999,-2.3 -2.8,-11.6 -2,-9.2 -3,-9.2 -1,0 -0.79999,-1.5 0.29999,-1.5 -0.40002,-2.7 -0.79999,-1.3 -1.6,-4.6 -0.70001,-3.2 -1.4,-4 -0.79999,-0.70001 0.20001,-1.2 1,-0.5 0.5,-3.2 -0.5,-2.8 -1.5,-2.8 -1,0 -1,-1 0,-1 1,-1.2 1,-0.29999 0,-0.59998 -1,-0.20001 -0.79999,-2.2 0.29999,-2 -0.40002,-2.8 -0.79999,-0.70001 -1,-6.4 -0.29999,-5.8 -0.79999,-7.8 -0.5,-2 -0.79999,-6.5 -0.20001,-4.5 -1.7,-4.5 -1.49999,0 -1.5,-1 -10e-6,-1 1,-1 1.00001,0 1,-5 l 0,-5 -0.2,-1.5 q -0.29999,-1.5 -0.79999,-2.5 -0.5,-1 0.5,-17 l 1,-16 -0.3,-0.2 -0.2,-0.3 0.2,-0.3 0.3,-0.2 0.3,-0.2 0.2,-0.3 0.2,-0.3 0.3,-0.2 0.3,0.2 0.2,0.3 0.2,0.3 0.3,0.2 0.5,1 0.5,1 0.3,0.2 0.2,0.3 0.2,0.3 0.3,0.2 6.3,6.8 q 6.2,6.7 8.2,7 2,0.20001 2,1.2 0,1 1,1 1,0 1,1 0,1 4.8,3.5 4.7,2.5 13,4.3 8.2,1.7 11.4,1 3.3,-0.79999 3.6,-0.59998 l 0.2,0.3 1,0.3 1,0.2 0.2,-1.5 0.3,-1.5 0.3,-0.2 0.2,-0.3 0.2,-0.3 0.3,-0.2 0.3,-0.2 q 0.20001,-0.29999 -1,-4.6 -1.3,-4.2 -1.8,-7.7 -0.5,-3.5 0,-8 0.5,-4.5 1.5,-9 1,-4.5 3.7,-8.5 2.8,-4 3.8,-3.8 1,0.29999 5,-1.7 4,-1.99999 15.5,-6 11.5,-4.00001 12,-4.7 0.5,-0.79999 6.5,-1.3 6,-0.5 6,-1.5 0,-1 4.5,-1 4.5,0 5,-0.79999 0.5,-0.70001 3.5,-1.7 3,-1 19.8,-5.3 16.7,-4.2 25.4,-6.4 8.8,-2.3 29.3,-7.3 l 20.5,-5 1.5,-0.5 1.5,-0.5 3,0 -0.2,0.3 -0.3,0.2 -0.3,0.2 -0.2,0.3 -0.2,0.3 -0.3,0.2 -0.3,0.2 -0.2,0.3 -0.2,0.3 -0.3,0.2 -0.3,0.2 -0.2,0.3 -0.2,0.3 -0.3,0.2 -0.3,0.2 -0.2,0.3 -0.2,0.3 -0.3,0.2 -0.3,0.2 -0.2,0.3 -0.2,0.3 -0.3,0.2 -0.3,0.2 -0.2,0.3 -8,9 q -8,9 -8.2,9.3 l -0.3,0.2 -0.3,0.2 -0.2,0.3 0.2,0.3 0.3,0.2 0,3 -0.3,-0.2 -0.2,-0.3 -0.2,-0.3 -0.3,-0.2 -0.3,1 -0.2,1 23,8.2 q 23,8.3 30.5,9.3 7.5,1 24,1 16.5,0 29,-3.5 12.5,-3.5 12.7,-3.8 l 0.3,-0.2 0.3,0.2 0.2,0.3 2,0 0.2,-0.3 0.3,-0.2 0.3,-0.2 0.2,-0.3 1,-0.5 1,-0.5 -0.2,-0.3 -0.3,-0.2 -0.3,-0.2 -0.2,-0.3 -0.2,-0.3 -0.3,-0.2 -0.3,-0.2 -0.2,-0.3 -0.2,-0.3 -0.3,-0.2 -0.3,-0.2 -0.2,-0.3 -0.2,-0.3 -0.3,-0.2 -0.3,-0.2 -0.2,-0.3 -0.2,-0.3 q -0.29999,-0.20001 -0.59998,-1.2 -0.20001,-1 -1.2,-1 -1,0 -1.2,-1 -0.29999,-1 -3.6,-3.2 -3.2,-2.3 -5.2,-4.3 -2,-2 -2.5,-3.3 -0.5,-1.2 -1.5,-1.4 l -1,-0.3 -0.2,-0.3 -0.3,-0.2 -0.3,-0.2 -0.2,-0.3 -0.2,-0.3 -0.3,-0.2 -0.3,-0.2 -0.2,-0.3 -0.2,-0.3 -0.3,-0.2 -0.3,-0.2 -0.2,-0.3 -0.2,-0.3 -0.3,-0.2 -0.3,-1 -0.2,-1 2.5,-0.2 2.5,-0.3 11,-2.5 q 11,-2.5 12,-2.2 1,0.20001 1.5,-0.59998 0.5,-0.70001 2,-0.70001 1.5,0 3,-0.5 l 1.5,-0.5 4,0 1,0.5 1,0.5 -0.2,0.3 -0.3,0.2 -0.3,0.2 -0.2,0.3 0.2,0.3 0.3,0.2 0.3,1 0.2,1 -1,0 q -1,0 -1,2.8 0,2.7 -1,3 -1,0.20001 -2.8,6.7 -1.7,6.5 -3.7,13 -2,6.5 -2.5,9 l -0.5,2.5 0,2 0.3,0.2 0.2,0.3 -0.2,0.3 -0.3,0.2 -0.3,0.2 -0.2,0.3 2,0 1,-0.5 1,-0.5 0.2,-0.3 0.3,-0.2 0.3,-0.2 0.2,-0.3 0.2,-0.3 0.3,-0.2 0.3,0.2 0.2,0.3 1,0 11.8,-7.3 q 11.7,-7.2 12,-8.2 0.20001,-1 4.7,-2.8 4.5,-1.7 6,-2.7 1.5,-1 2.5,-1.3 l 1,-0.2 1,0.2 1,0.3 1,0.5 1,0.5 1,0 2,-0.3 q 2,-0.20001 2,-1.2 0,-1 1.5,-1.2 1.5,-0.29999 12,-7.8 10.5,-7.50001 12,-10.2 1.5,-2.8 3,-3 1.5,-0.29999 3,-2 1.5,-1.8 4,-3.6 2.5,-1.7 4,-4.4 1.5,-2.8 2.5,-2.8 1,0 1.2,-1 0.29999,-1 1.6,-1.5 1.2,-0.5 2.4,-2.5 1.3,-2 3.8,-7.5 2.5,-5.5 0,-9 -2.5,-3.5 -8.2,-7.3 -5.8,-3.7 -12.8,-5.7 -7,-2 -7.5,-2.7 -0.5,-0.79999 -1.5,-0.79999 -1,0 -1,1 0,1 -1,1 -1,0 -1.5,-1.2 -0.5,-1.3 -19,-1.8 -18.5,-0.5 -21.5,-0.5 -3,0 -5.5,0.29999 -2.5,0.20001 -2.5,-0.79999 0,-1 -5,-1.2 -5,-0.29999 -17.5,-3.3 -12.5,-3.00001 -15,-2.7 -2.5,0.20001 -2.5,-0.79999 0,-1 -9.5,-3.2 -9.5,-2.3 -14.5,-2.6 -5,-0.20001 -6,-1.4 -1,-1.3 -12,-4.8 l -11,-3.5 -1.5,-0.5 -1.5,-0.5 -1.5,-0.5 -1.5,-0.5 -0.2,-0.3 -0.3,-0.2 -0.3,-0.2 -0.2,-0.3 1,-0.5 1,-0.5 1,-0.5 1,-0.5 0.2,-0.3 0.3,-0.2 0.3,-0.2 0.2,-0.3 2,-1 q 2,-1 8,-3.3 6,-2.2 7,-3.4 1,-1.3 21,-10.8 20,-9.5 28.5,-13 8.5,-3.5 22.5,-6.5 14,-3 29.8,-3.7 15.7,-0.79999 16,0.20001 0.20001,1 3.2,1.2 3,0.29999 5.5,0.79999 l 2.5,0.5 1.5,0.5 1.5,0.5 -0.2,0.3 -0.3,0.2 -0.5,1 -0.5,1 -3,6 q -3,6 -3,11 l 0,5 0.3,0.2 0.2,0.3 1,0.5 1,0.5 0.2,0.3 0.3,0.2 0.3,-0.2 0.2,-0.3 0.2,-0.3 0.3,-0.2 0.3,0.2 0.2,0.3 2,0 1,-0.5 q 1,-0.5 6,-2 5,-1.5 14.8,-5.8 9.7,-4.2 10,-5.2 0.20001,-1 4.7,-2.8 4.5,-1.7 5.5,-2.2 l 1,-0.5 0.2,-0.3 0.3,-0.2 0.3,-0.2 0.2,-0.3 0.2,-0.3 0.3,-0.2 0.3,-0.2 0.2,-0.3 1,-0.5 q 1,-0.5 1,-0.79999 l 0,-0.20001 0.20001,0 q 0.29999,0 0.59998,-0.5 l 0.2,-0.5 0.20001,0 q 0.29999,0 2.6,-1.5 2.2,-1.5 2.4,-2.5 0.29999,-1 1.6,-1.5 1.2,-0.5 5.4,-7 4.3,-6.5 6.3,-12.5 2,-6 0,-11.5 -2,-5.5 -4.3,-8.3 -2.2,-2.7 -3,-4 -0.70001,-1.2 -3.7,-5.2 -2.99999,-4 -5.3,-6 -2.2,-2 -3.4,-4 -1.3,-2 -2.6,-3 -1.2,-1 -1.4,-2 -0.29999,-1 -5.3,-6.5 -5.00001,-5.5 -8.7,-9 -3.8,-3.5 -4,-4.5 -0.29999,-1 -2.6,-3.2 -2.2,-2.3 -4.2,-6.6 -2,-4.2 -3,-4.2 -1,0 -2,-2.5 -1,-2.5 -2,-2.5 -1,0 -1.2,-1 -0.29999,-1 -3.8,-4 -3.50001,-3 -8.2,-4.8 -4.8,-1.7 -10.3,-2.2 -5.5,-0.5 -9,-0.79999 -3.5,-0.20001 -3.5,-1.2 0,-1 -1,-0.79999 -1,0.29999 -13,-2.2 -12,-2.49999 -17,-1.8 -5,0.79999 -5.2,-0.20001 -0.29999,-1 -1.6,-1.5 -1.2,-0.5 -1.4,0.5 -0.29999,1 -0.79999,0 -0.5,-1 -1.8,-1.2 -1.2,-0.29999 -5.2,-0.79999 -4,-0.5 -5,-1 -1,-0.5 -3,-1 -2,-0.5 -2.5,-1.2 -0.5,-0.79999 -2,-0.59998 -1.5,0.29999 -2.5,1 l -1,0.8 -0.5,-0.2 q -0.5,-0.29999 -0.5,-0.59998 l 0,-0.40002 q 0,-0.29999 -5,-1.3 -5,-1.00001 -5.5,-1.7 -0.5,-0.79999 -3.5,-1 -3,-0.29999 -3.5,0.40002 -0.5,0.79999 -1.5,0.79999 -1,0 -1.2,-1.5 -0.29999,-1.5 -1,-0.70001 -0.79999,0.70001 -1.3,0 -0.5,-0.79999 -5,-1.6 -4.5,-0.70001 -8.5,-1.7 -4,-1 -6,-4 -2,-3 -3.5,-6.7 -1.5,-3.8 -2.5,-3.8 -1,0 -2.2,-3 -1.3,-3 -3,-4.5 -1.8,-1.5 -1.3,-4 0.5,-2.5 -1,-2.5 -1.5,0 -1.3,-1 0.29999,-1 -1.2,-5.5 -1.49999,-4.5 -2,-4 -0.50001,0.5 -0.79999,-12 -0.20001,-12.5 -1.2,-12.5 -1,0 0.5,-7 1.5,-7 3,-7 1.5,0 1.5,-2 0,-2 2,-2.2 2,-0.29999 1.5,-0.79999 -0.5,-0.5 0.70001,-2.8 1.3,-2.2 4,-7.7 2.8,-5.5 3.8,-5.7 1,-0.29999 1,-1.3 0,-1.00001 0.79999,-3.3 0.70001,-2.2 1.4,-2.4 0.79999,-0.29999 0.79999,-2 0,-1.8 1.5,-1.8 1.5,0 1.5,-1 0,-1 1,-1.2 1,-0.29999 2.8,-3 1.7,-2.8 2,-4.8 0.20001,-2 2.2,-2.5 1.99999,-0.5 1.8,-1.5 -0.29999,-1 0.40002,-1.8 0.79999,-0.70001 1,-3 0.29999,-2.2 1.6,-2.4 1.2,-0.29999 1.7,-1.6 0.5,-1.2 2.5,-1.7 2,-0.5 2.2,-1.5 0.29999,-1 1.6,-1.5 1.2,-0.5 3.7,-5 2.5,-4.5 3.5,-4.7 1,-0.29999 1.5,-1.6 0.5,-1.2 2,-1.2 1.5,0 2.5,-2.5 1,-2.5 2,-2.5 1,0 1,-1 0,-1 2.8,-3 2.7,-2 2,-2.5 -0.79999,-0.5 -0.79999,-1.5 0,-1 2.5,-0.5 2.5,0.5 2.5,-0.5 0,-1 1,-1.2 1,-0.29999 2.8,-3.6 1.7,-3.2 3,-3 1.2,0.29999 1.7,-2 0.5,-2.2 2,-2.2 1.5,0 1.5,-1 0,-1 3,-2.8 3,-1.7 6,-3.2 3,-1.5 3.8,-3.8 0.70001,-2.2 3,-2.2 2.2,0 2.2,-1 0,-1 4,-3 4,-2 4,-3 0,-1 3,-1.8 3,-0.70001 4,-2.4 1,-1.8 2,-1.6 1,0.29999 6.5,-2.7 5.5,-2.99999 6.5,-4.3 1,-1.2 4.5,-2.4 3.5,-1.3 4,-3 0.5,-1.8 2.5,-1.6 2,0.29999 2.5,-1 0.5,-1.2 1.5,-1 1,0.29999 2.5,-0.20001 1.5,-0.5 4.3,-2.8 2.7,-2.2 4.4,-1.7 1.8,0.5 2,-1 0.29999,-1.5 5,-2.3 4.8,-0.70001 6.3,-2.4 1.5,-1.8 4,-1.6 2.5,0.29999 3.3,-2 0.70001,-2.2 1.4,-1 0.79999,1.3 2.8,0.29999 2.00001,-1.00001 12,-3.7 10,-2.8 10.5,-4.3 l 0.5,-1.5 1.5,1 q 1.5,1 1.5,0 0,-1 3.5,-1.2 3.5,-0.29999 11.5,-2.3 8,-2.00001 10,-3 2,-0.99999 2.5,-1.7 0.5,-0.79999 8,-1 7.5,-0.29999 13.7,-1.6 6.3,-1.2 6.6,-1.4 0.20001,-0.29999 2.7,-0.59998 l 2.5,-0.2 1.8,-0.5 q 1.7,-0.5 1.4,-1.5 -0.20001,-1 0.79999,-1 1,0 2,1.2 1,1.3 1.5,1.3 0.5,0 2.5,0.29999 z m -273.8,178 q -0.20001,-0.29999 0,-0.59998 0.29999,-0.20001 0.29999,0.29999 0,0.5 -0.29999,0.29999 z m 69,383.4 0.3,-0.2 0.3,0.2 q 0.20001,0.29999 -0.29999,0.29999 l -0.5,0 0.2,-0.3 z m -268,35 q 0.29999,-0.20001 0.59998,0 0.20001,0.29999 -0.29999,0.29999 -0.5,0 -0.29999,-0.29999 z"
           id="svg_2"
           style="stroke:none" />
        <path
           inkscape:connector-curvature="0"
           d="m 449,0.2 0,-0.2 390,0 0,288 -2,-0.2 q -2,-0.29999 -2.5,-0.29999 -0.5,0 -4,0.29999 l -3.5,0.2 -0.2,-1.5 -0.3,-1.5 -0.3,-1 -0.2,-1 1,-0.2 1,-0.3 -1,-0.5 -1,-0.5 -0.2,-0.3 q -0.29999,-0.20001 -2.6,-2 -2.2,-1.7 -2.2,-3.4 0,-1.8 -1,-1.8 -1,0 -1,-1 0,-1 -1.8,-2 -1.7,-1 -4,-1.8 -2.2,-0.70001 -4.7,-1.7 -2.5,-1 -3.3,-2.7 -0.70001,-1.8 -3.4,-1.6 -2.8,0.29999 -4.8,-1.4 -2,-1.8 -2.2,-2.8 -0.29999,-1 -2,-2 -1.8,-1 -2,0 -0.29999,1 -0.59998,-0.5 -0.20001,-1.5 -4.7,-1.7 -4.5,-0.3 -7,-1 -2.5,-0.8 -2.3,-1.8 0.29999,-1 -0.40002,-1.8 -0.79999,-0.7 -1.3,0 -0.5,0.8 -1.5,0.8 -1,0 -1,-1.5 0,-1.5 -2.5,-1.3 -2.5,0.3 -3.5,-0.2 -1,-0.5 -1.8,-1.2 -0.70001,-0.8 -1.2,0.7 -0.5,1.5 -2.8,0.7 -2.2,-0.7 -1.7,-2 0.5,-1.2 -1.5,-0.39999 -2,0.7 -2.5,-0.60001 -0.5,-1.2 -2.5,-1.2 -2,0 -2.2,1 -0.29999,1 -1.6,0.5 -1.2,-0.5 -1.2,-1.5 0,-1 -1,-0.8 -1,0.3 -1.5,-0.39999 -0.5,-0.8 -1.7,-1.3 -1.3,-0.5 -3.6,-1 -2.2,-0.5 -2.2,0.5 0,1 -1.8,0.5 -1.7,-0.5 -4,-1 -2.2,-0.5 -2.2,-1.5 0,-1 -2.2,-0.5 -2.3,0.5 -4.6,1 -2.2,0.5 -2,-0.5 0.29999,-1 -3,-2 -3.2,-1 -3.2,0.5 0,1.5 -4,0 -4,-1.5 -4.2,-0.5 -0.29999,1 -6,-1.2 -5.8,-2.3 -9.8,-2.8 -4,-0.5 -6,-1 -2,-0.5 -4.5,0.2 -2.5,0.8 -2.5,-0.2 0,-1 -5,-0.2 -5,0.7 -5.8,1.4 -0.70001,0.8 -5,2 -4.2,1.3 -4.7,2 -0.5,0.8 -1.5,0.60001 -1,-0.3 -1.8,0.39999 -0.70001,0.8 -2.2,0.8 -1.49999,0 -2.2,2 -0.79999,2 -2.8,1.8 -2,-0.3 -2.8,0.39999 -0.70001,0.8 -1,-0.2 -0.20001,-1 -2.2,-0.5 -1.99999,0.5 -2.2,1.5 -0.29999,1 -1.6,1.2 -1.2,0.3 -4.7,1 -3.5,0.8 -3.5,1.8 0,1 -2,1.5 -2,0.5 -2,1.5 0,1 -1.5,0.2 -1.5,-0.7 -3.3,1.6 l -1.7,2.2 -0.3,-0.2 -0.2,-0.3 -0.2,-0.3 -0.3,-0.2 -0.3,1 -0.2,1 -2,0 0.2,-1 0.3,-1 0.3,-0.2 0.2,-0.3 -1,-0.5 -1,-0.5 -0.2,-0.3 q -0.29999,-0.2 -1.3,-4.2 l -1,-4 -0.3,-0.2 -0.2,-0.3 -0.2,-0.3 -0.3,-0.2 -0.3,0.2 -0.2,0.3 -0.2,0.3 -0.3,0.2 -0.3,0.2 q -0.20001,0.3 -4.7,1.3 -4.49999,1 -4.3,2.3 0.29999,1.2 -0.40002,0.39999 -0.79999,-0.7 -1.3,0 -0.5,0.8 -4,2.3 -3.5,1.5 -3.5,0.5 0,-1 -1,-1 -1,0 -1.2,2 -0.29999,2 -3,2.2 -2.8,0.3 -3.6,-0.39999 -0.70001,-0.8 -2.4,-0.3 l -1.8,0.5 0.5,0.8 q 0.5,0.7 1.5,0.39999 1,-0.2 1,0.8 l 0,1 -1,0.2 -1,0.3 -2,0 q -2,0 -1,-0.29999 1,-0.20001 1,-1.2 0,-1 -3,-0.5 -3,0.5 -2.8,2.5 0.29999,2 -1,1.2 -1.2,-0.70001 -2.4,0 -1.3,0.79999 -5,1.6 -3.8,0.70001 -2.8,1.2 1,0.5 -1,1 -2,0.5 -5.2,-0.20001 -3.3,-0.79999 -2.6,-1.6 0.79999,-0.70001 0,-2 -0.70001,-1.2 -1,-0.20001 -0.20001,1 -4.7,-0.79999 -4.5,-1.7 -8.3,-1 -3.7,0.79999 -5.4,0.79999 -1.8,0 -1.8,1 0,1 -2.5,0.79999 -2.5,-0.29999 -3.7,1 -1.3,1.2 -2,1.7 -0.79999,0.5 -1,-1 -0.29999,-1.5 -7,0 -6.8,1.5 -7,3 -0.29999,1.5 -0.79999,0.5 -0.5,-1 -1.8,-0.79999 -1.2,0.29999 -4.7,1.3 -3.5,1.00001 -4.5,0.5 -1,-0.50001 -2.5,0.5 -1.5,1.00001 -2.3,1.7 -0.70001,0.79999 -1,-0.20001 -0.20001,-1 -1.2,-0.79999 -1,0.29999 -1.5,1.6 -0.5,1.2 -3.5,0.20001 -3,-1 -3.5,0.5 l -0.5,1.5 0,-0.5 -1,-0.3 -1,-0.2 0,2 -1,0.2 -1,0.3 -0.2,0.3 -0.3,0.2 -0.3,0.2 -0.2,0.3 -0.2,0.3 Q 472.5,274 472.20001,273.79999 472,273.5 466.00001,274.5 q -5.99999,1 -5.5,2.3 0.5,1.2 -0.5,1.2 -1,0 -1.2,-1 -0.29999,-1 -0.59998,0.5 -0.20001,1.5 -3.2,1.7 -3,0.29999 -4.8,2 -1.7,1.8 -3.4,2 -1.8,0.29999 -3.6,1 -1.7,0.79999 -4,1.6 -2.2,0.70001 -6.2,3 l -4,2.2 0,2 -4,0 0.2,-1 0.3,-1 0,-1 -0.3,-1 -0.2,-1 2,0 0.2,-7 q 0.29999,-7 1.3,-13.5 1.00001,-6.5 1.5,-7.5 0.49999,-1 4.5,-15 4.00001,-14 10.3,-29.8 6.2,-15.7 15.7,-31.2 9.5,-15.5 19.3,-27.8 9.7,-12.2 23.4,-25.4 13.8,-13.3 34.3,-27.8 20.5,-14.5 24.5,-16.2 4,-1.8 4,-2.8 0,-1 16.8,-9 16.7,-8 17,-9 0.20001,-1 5,-3 4.7,-2 7,-2.8 2.2,-0.7 12,-4.4 9.7,-3.8 13,-5 3.2,-1.3 5.7,-2.3 2.5,-1 3.3,-1.7 0.70001,-0.8 1,-0.6 l 0.2,0.3 2,0 1.5,-0.3 1.5,-0.2 -0.2,-1 -0.3,-1 -0.3,-0.2 -0.2,-0.3 -0.2,-0.3 -0.3,-0.2 -0.3,-0.2 -0.2,-0.3 -1.5,-0.3 q -1.5,-0.2 -2.3,-2.2 -0.70001,-2 -5,-3.5 -4.2,-1.5 -4.2,-2.5 0,-1 -4.5,-2.8 -4.5,-1.7 -6,-2.2 -1.5,-0.5 -3,-0.2 -1.5,0.2 -1.5,-0.8 0,-1 -5.5,-2.8 -5.5,-1.7 -7,-2.2 -1.5,-0.5 -4,-0.8 -2.5,-0.2 -2.5,-1.2 0,-1 -4,-1.8 -4,-0.7 -5.5,-0.4 l -1.5,0.2 0,-0.2 q 0,-0.3 -2.5,-1.3 -2.5,-1 -11,-2.5 -8.5,-1.5 -12,-2 -3.5,-0.5 -4.5,0 -1,0.5 -1.8,-0.2 -0.70001,-0.8 -3.4,-1.3 -2.8,-0.5 -3.3,0.7 -0.5,1.3 -1,0 -0.5,-1.2 -6,-1.4 -5.5,-0.3 -24,0.7 -18.5,1 -36,3.5 -17.5,2.5 -25,4 l -7.5,1.5 -0.2,-0.3 q -0.29999,-0.2 -0.79999,-0.7 -0.5,-0.5 -2,-7 l -1.5,-6.5 -0.3,-2 q -0.20001,-2 -1.2,-2.5 l -1,-0.5 1,-0.2 q 1,-0.3 1,-0.6 z m 250.5,234 q -1.5,-0.7 0,-1 1.5,-0.2 1.5,0.8 0,1 -1.5,0.2 z m -54.3,7.6 q -0.20001,-0.3 0,-0.60001 0.29999,-0.2 0.29999,0.3 0,0.5 -0.29999,0.3 z m -32,5 q -0.20001,-0.3 0,-0.60001 0.29999,-0.2 0.29999,0.3 0,0.5 -0.29999,0.3 z m -28,5 q -0.20001,-0.3 0,-0.60001 0.29999,-0.2 0.29999,0.3 0,0.5 -0.29999,0.3 z M 800,262 q 0,-1 1,-1 1,0 1,1 0,1 -1,1 -1,0 -1,-1 z m 31,23 q 1,0 1,1 0,1 -1,1 -1,0 -1,-1 0,-1 1,-1 z"
           id="svg_3"
           style="stroke:none" />
        <path
           inkscape:connector-curvature="0"
           d="m 0,800 0,-332 3.8,30 q 3.7,30 0.7,30 -3,0 -2.5,12.5 0.5,12.5 1.5,24.5 1,12 2.5,26.5 1.5,14.5 2,20.5 0.5,6 1.8,8.2 1.2,2.3 8.2,5.3 7,3 8.5,3.3 l 1.5,0.2 0,0.5 0.2,0.3 0.3,0.2 0.3,0.2 0.2,0.3 1,0.5 1,0.5 14,5 q 14,5 15,4.7 1,-0.20001 1,0.79999 0,1 2,1.2 2,0.29999 4.5,0.29999 l 2.5,0 0.2,-0.3 0.3,-0.2 0.3,0.2 0.2,0.3 0.2,0.3 0.3,0.2 0.3,0.2 0.2,0.3 0.2,0.3 0.3,0.2 0.3,0.2 0.2,0.3 -0.2,0.3 -0.3,0.2 -0.3,0.2 -0.2,0.3 -0.2,0.3 -0.3,0.2 -0.3,0.2 -0.2,0.3 -0.8,0.7 q -0.7,0.79999 -2.2,2.3 -1.5,1.50001 -1.8,1.7 l -0.2,0.3 -0.2,0.3 -0.3,0.2 -0.5,1 -0.5,1 -0.3,0.2 -0.2,0.3 2,0.5 2,0.5 1,0.5 1,0.5 2,0.3 q 2,0.20001 2.5,1 0.5,0.70001 9.3,1.4 8.7,0.79999 9,1.8 0.2,1 4,1 3.7,0 9.2,0.5 5.5,0.5 21.8,0.70001 16.2,0.29999 24.2,0 l 8,-0.2 -0.2,1 -0.3,1 -0.3,0.2 -0.2,0.3 -1,0.5 -1,0.5 -1,0.3 -1,0.2 0,1.5 q 0,1.5 1,1.7 l 1,0.3 0.2,0.3 0.3,0.2 0.3,0.2 0.2,0.3 -0.2,0.3 -0.3,0.2 -0.3,0.2 -0.2,0.3 -2,-0.3 q -2,-0.20001 -2,-1.2 0,-1 -1,-1 -1,0 -0.2,2 0.7,2 -2,3 -2.8,1 -2.8,2.5 0,1.5 -2.5,3.3 -2.5,1.7 -4.5,2 -2,0.20001 -4.5,3 -2.5,2.7 -3.5,3 -1,0.20001 -1.5,1.4 -0.5,1.3 -1.5,1.6 -1,0.20001 -1,1.2 0,1 -1.5,1 -1.5,0 -1.5,1.5 0,1.5 -2.8,2.5 -2.7,1 -3.4,3 -0.8,2 -1.8,2 -1,0 -1,1.5 0,1.5 -3,1.7 -3,0.29999 -1.5,0.59998 1.5,0.20001 1.5,1.2 0,1 -1.5,1 -1.5,0 -3.5,2.8 -2,2.7 -5,4.2 -3,1.5 -3.2,3.2 -0.3,1.8 -5.3,6.3 -5,4.5 -6,6 -1,1.5 -1.5,2.5 -0.5,1 -0.8,1.2 l -0.2,0.3 -1,0.5 -1,0.5 0.2,0.3 0.3,0.2 0.3,0.2 0.2,0.3 2,1.7 q 2,1.8 2.5,3.6 0.5,1.7 2,1.2 1.5,-0.5 3.7,0.79999 2.3,1.2 2.6,2.2 0.2,1 1.2,1.2 l 1,0.3 -0.2,0.3 -0.3,0.2 -0.3,0.2 q -0.2,0.29999 0,0.59998 l 0.3,0.2 -2,3.5 q -2,3.5 -3.7,6.5 -1.8,3 -3.6,4 -1.7,1 -2,2.5 -0.2,1.5 -1.2,1.5 -1,0 -1.5,1.8 -0.5,1.7 -1.5,2 -1,0.20001 -2.5,3 -1.5,2.7 -2.7,4.4 -1.3,1.8 -2,4 -0.8,2.3 0,3 0.7,0.79999 3.2,7.3 2.5,6.50001 3.8,10.3 1.2,3.7 1.4,5.4 0.3,1.8 0.60001,2.3 l 0.2,0.5 -0.5,0.2 q -0.5,0.29999 0,0.59998 l 0.5,0.2 0,0.20001 q 0,0.29999 0.5,0.59998 l 0.5,0.2 0,0.20001 q 0,0.29999 0.5,0.59998 l 0.5,0.2 -0.5,0.8 q -0.5,0.70001 -0.3,1 l 0.3,0.2 0.3,0.2 0.2,0.3 -0.2,0.3 -0.3,0.2 -0.3,0.2 -0.2,0.3 0.2,0.3 0.3,0.2 0.3,0.2 0.2,0.3 -0.2,0.3 -0.3,0.2 0.7,0.5 q 0.8,0.5 1.8,4.3 1,3.7 2,6.7 1,3 1,4.7 0,1.8 1,1.8 1,0 2,5.5 1,5.5 -1,5.7 -2,0.29999 -0.5,0.59998 1.5,0.20001 1.5,1.2 0,1 -0.8,1.5 -0.7,0.5 2.3,11 3,10.5 3.5,12.5 0.5,2 3.5,11.5 3,9.5 3.3,8.5 0.2,-1 1.4,0 1.3,1 1.3,2.5 l 0,1.5 0.3,0.2 0.2,0.3 1,0.5 1,0.5 0.2,0.3 0.3,0.2 0.3,-1 0.2,-1 1,0.2 1,0.3 0.2,0.3 0.3,0.2 0.3,0.2 0.2,0.3 0.2,0.3 0.3,0.2 0.3,0.2 0.2,0.3 2,0 -0.2,-0.3 -0.3,-0.2 -0.5,-2 q -0.5,-2 -0.8,-2.2 -0.2,-0.29999 -0.39999,-3 l -0.3,-2.8 0.3,-0.2 0.2,-0.3 0.2,-0.3 0.3,-0.2 0.5,-1 0.5,-1 0.3,-0.2 0.2,-0.3 0.2,-0.3 0.3,-0.2 0.3,-0.2 0.2,-0.3 0.2,-0.3 0.3,-0.2 0.3,-0.2 0.2,-0.3 0.2,-0.3 0.3,-0.2 0.3,-0.2 0.2,-0.3 0.2,-0.3 0.3,-0.2 0.5,1 0.5,1 0.3,0.2 0.2,0.3 -0.2,0.3 -0.3,0.2 -0.5,2 -0.5,2 0.5,3 q 0.5,3 1.2,5 0.8,2 1.8,2 1,0 1,1 0,1 1,1 1,0 1,1 0,1 -0.8,1.5 -0.7,0.5 -0.2,1.5 0.5,1 0.8,1.8 0.2,0.70001 2.2,0.40002 2,-0.20001 0.8,1.8 -1.3,2 1,3.5 2.2,1.5 4,7 1.7,5.5 2,5.5 l 1.2,0 q 1,0 1,1.5 0,1.5 1,1.7 l 1,0.3 -0.2,0.3 -0.3,0.2 0.7,2.2 q 0.8,2.3 2.3,2.6 1.5,0.20001 1.5,2.4 0,2.3 5.5,9 5.5,6.8 4.7,7.3 -0.7,0.5 1,0.5 1.8,0 3.3,3.8 1.5,3.7 2.3,3.4 0.7,-0.20001 2,2 1.2,2.3 2,3 0.7,0.79999 2.7,2.8 2,2.00001 2.3,3.2 0.2,1.3 2.4,3 2.3,1.8 3,3.8 0.8,2 2.3,2 1.5,0 2,1.2 0.5,1.3 2.7,2 2.3,0.79999 2,2.8 -0.2,2 1.8,2 2,0 2,1 0,1 0.8,1.5 0.7,0.5 1.4,2 0.8,1.5 2,2 1.3,0.5 3.6,2.7 2.2,2.3 4.2,3.6 2,1.2 2.5,2.4 0.5,1.3 2.7,2.6 2.3,1.2 2.6,2.2 0.2,1 1.7,1 1.5,0 1.5,1.5 0,1.5 2.8,3 2.7,1.5 3,2.5 0.2,1 3.2,1 3,0 3.2,1.5 l 0.3,1.5 0.3,0.2 0.2,0.3 1,0 0.2,-0.3 0.3,-0.2 0.5,-1 q 0.5,-1 1.5,-3.5 l 1,-2.5 0.5,-1.5 0.5,-1.5 0.5,1 0.5,1 0.3,0.2 0.2,0.3 0.2,0.3 0.3,0.2 0.3,0.2 0.2,0.3 0.5,1.3 q 0.5,1.2 1.5,1.2 1,0 3.2,3 2.3,3 3,3.8 0.8,0.7 2.6,3 1.7,2.2 3,4 1.2,1.7 2.4,2.3999 1.3,0.8001 1.8,1.8 0.5,1 14.2,14.8 13.8,13.7 15.3,14 1.5,0.1999 2,1.3999 0.5,1.3 1.5,1.6001 1,0.1999 2,2 1,1.7 2.5,2 1.5,0.1999 2,1.3999 0.5,1.3 1.5,1.6001 1,0.1999 1,1.2 0,1.0001 5.8,4.5 5.7,3.5 6,4.5 0.20001,1 4.2,3.2 4,2.3 20.5,12.3 16.5,10 32.5,16.5 16,6.5 17.5,7 1.5,0.5 3.5,1 l 2,0.5 1,0.5 1,0.5 1,0.5 1,0.5 1,0.5 1,0.5 1,0 0.2,-0.3 0.3,-0.2 1,0 0.3,1 0.2,1 -397,0 0,-332 z"
           id="svg_4"
           style="stroke:none" />
        <path
           inkscape:connector-curvature="0"
           d="M 0,219 0,0 l 449,0 0,0.2 q 0,0.3 -1,0.6 l -1,0.2 -0.5,0.2 q -0.5,0.3 -5,1.3 -4.5,1 -20.5,6 -16,5 -30,12 -14,7 -15.8,7.7 -1.7,0.8 -4,1.3 -2.2,0.5 -2.2,2 0,1.5 -2,1.7 -2,0.3 -10.5,5 -8.5,4.8 -8.5,5.8 0,1 -3,2.2 -3,1.3 -5,3.6 -2,2.2 -5,3.2 -3,1 -3,2.5 0,1.5 -3.5,3 -3.5,1.5 -3.5,3 0,1.5 -2,1.5 -2,0 -2.2,1 -0.29999,1 -7.6,6.8 -7.2,5.7 -10.7,8.2 l -3.5,2.5 -0.2,0.3 -0.3,0.2 -0.3,0.2 -0.2,0.3 -0.2,0.3 -0.3,0.2 -0.3,0.2 -0.2,0.3 -0.2,0.3 -0.3,0.2 -0.3,-0.2 -0.2,-0.3 -0.2,-0.3 -0.3,-0.2 -0.5,-2 q -0.5,-2 -0.79999,-4 l -0.2,-2 -2,0.2 q -2,0.3 -20.5,9.6 -18.5,9.2 -18.5,10.2 0,1 -1.2,1.5 -1.3,0.5 -2.3,0.5 -1,0 -2.5,2.5 -1.5,2.5 -3.2,2.7 -1.8,0.3 -3.3,1.3 -1.5,1 -3.5,1.7 -2,0.8 -2,1.8 0,1 -1,1 -1,0 -1.2,1 -0.3,1 -2,1 -1.8,0 -1.8,1 0,1 -4,3.5 -4,2.5 -4,4 0,1.5 -1,1.3 -1,-0.3 -1.5,0.39999 -0.5,0.8 -1.5,1 -1,0.3 -6.2,5.6 -5.3,5.2 -5.8,4.7 -0.5,-0.5 -1.5,1.5 -1,2 -2.7,2.8 -1.8,0.7 -11,11 -9.3,10.2 -12,12.7 -2.8,2.5 -2.6,3.5 0.3,1 -1,2.2 -1.2,1.3 -2,2 -0.7,0.8 -5.4,7.6 -4.8,6.7 -6.3,9.4 l -1.5,2.8 -3,0 -0.2,-1 q -0.3,-1 -2.6,-2 -2.2,-1 -3,-2.5 -0.7,-1.5 -2.4,-2.5 l -1.8,-1 -0.5,1.2 q -0.5,1.3 -3.3,3.6 -2.7,2.2 -3.4,4.7 -0.8,2.5 -1.8,2.5 -1,0 -2.8,5 -1.7,5 -3.2,7.5 -1.5,2.5 -2.5,5 -1,2.5 -2.5,7 -1.5,4.5 -4.5,13 -3,8.5 -4.3,16 -1.2,7.5 -2.2,7.5 -1,0 -1,2 0,2 1,2 1,0 1,1 0,1 -1.8,1.5 -1.7,0.5 -2.2,4.5 -0.5,4 -0.5,4.5 0,0.5 -0.3,2 l -0.2,1.5 -0.2,0 q -0.3,0 -0.60001,0.5 l -0.2,0.5 0,1 -0.2,1.5 -0.3,1.5 -0.5,3.5 -0.5,3.5 -0.5,-2.5 -0.5,-2.5 -0.5,-3.5 q -0.5,-3.5 -1.5,-8.5 -1,-5 -2.3,-12.5 -1.2,-7.5 -2.2,-7.5 -1,0 -0.8,-1.5 0.3,-1.5 -1,-7.3 -1.2,-5.7 -1.4,-7.4 l -0.3,-1.8 -0.3,-0.2 -0.2,-0.3 -1,-0.3 -1,-0.2 -0.2,-1.5 -0.3,-1.5 -0.3,0.2 -0.2,0.3 -2,0.3 -2,0.2 -0.2,1 -0.3,1 -0.3,0.2 -0.2,0.3 -1.2,2.3 q -1.3,2.2 -5.3,9.2 -4,7 -11.5,22.5 -7.5,15.5 -15.5,37 -8,21.5 -20.7,63.5 -12.8,42 -21.8,42.2 -9,0.29999 -10.2,9 -1.3,8.8 -1.8,17.3 l -0.5,8.5 -0.5,0 0,-219 z"
           id="svg_5"
           style="stroke:none" />
        <path
           inkscape:connector-curvature="0"
           d="m 796,275 1,0.5 1.5,0.5 1.5,0.5 1.5,0.5 1.5,0.5 1,0.5 1,0.5 -1.5,0.5 -1.5,0.5 -2,0.5 -2,0.5 -2.5,0.5 q -2.5,0.5 -19,4.5 l -16.5,4 -2,0.5 -2,0.5 -0.2,0.3 -0.3,0.2 -0.5,0 -1.5,0.2 q -1.5,0.29999 -25,8.3 -23.5,8.00001 -44.5,18 -21,9.99999 -39,22 -18,12.00001 -32.2,25.3 -14.3,13.2 -27.8,30.7 -13.5,17.5 -28,43 -14.5,25.5 -15,38.5 -0.5,13 2,25.5 2.5,12.5 8.5,27 l 6,14.5 0.5,1 0.5,1 0.5,1 0.5,1 0.3,0.2 0.2,0.3 -5,0 -6,-0.5 q -6,-0.5 -25,-2.5 -19,-2 -25.5,-9.5 -6.5,-7.5 -19,-24 Q 468,495.5 456.8,475.2 445.5,455 438,435 q -7.5,-20 -1.5,-34.5 6,-14.5 14.5,-29 l 8.5,-14.5 0.5,-1 0.5,-1 0.3,-0.5 0.2,-0.5 0.5,0 0.3,-0.2 0.2,-0.3 0.2,-0.3 0.3,-0.2 0.5,-1 0.5,-1 0.3,-0.2 0.2,-0.3 0.2,-0.3 0.3,-0.2 12.3,-13.8 Q 489,322.5 504,311 q 15,-11.5 33,-21 18,-9.5 32,-14.5 14,-5 16,-5.5 l 2,-0.5 1.5,-0.5 1.5,-0.5 1.5,-0.5 1.5,-0.5 2,0 -0.2,0.3 -0.3,0.2 -0.5,1 -0.5,1 -0.5,1 -0.5,1 -0.3,0.2 -0.2,0.3 -0.2,0.3 -0.3,0.2 -0.5,1 q -0.5,1 -7.2,11.8 l -6.8,10.7 -0.2,0.3 -0.3,0.2 -0.5,1 -0.5,1 -0.3,0.2 -0.2,0.3 -0.2,0.3 -0.3,0.2 -0.5,1 -0.5,1 -0.3,0.2 -0.2,0.3 -0.2,0.3 -0.3,0.2 -0.3,0.2 -0.2,0.3 2,0 0.2,-0.3 0.3,-0.2 0.3,-0.2 0.2,-0.3 0.2,-0.3 0.3,-0.2 0.3,-0.2 0.2,-0.3 0.2,-0.3 0.3,-0.2 0.3,-0.2 0.2,-0.3 0.2,-0.3 0.3,-0.2 0.3,-0.2 0.2,-0.3 0.2,-0.3 0.3,-0.2 0.3,-0.2 0.2,-0.3 0.2,-0.3 0.3,-0.2 11.3,-9.8 q 11.2,-9.7 27.2,-18.7 16,-9 27.5,-13.5 11.5,-4.5 33.5,-4.5 22,0 45,4 23,4 47,11.5 24,7.5 25,8 z"
           id="svg_6"
           style="stroke:none" />
      </g>
      <path
         inkscape:connector-curvature="0"
         d="m 177.8,578.2 21.2,10.3 1,0.5 1,0.5 1,0.5 1,0.5 1,0.5 1,0.5 1,0 0.2,-0.3 0.3,-0.2 0,-2 -0.3,-0.2 -0.2,-0.3 -0.2,-0.3 -0.3,-0.2 -0.3,-0.2 -0.2,-0.3 -0.2,-0.3 -0.3,-0.2 -0.3,-1.5 -0.2,-1.5 -1,0 q -1,0 -9.2,-14 -8.3,-14 -9.3,-18.5 -1,-4.5 4.5,-13 l 5.5,-8.5 0.3,-0.2 0.2,-0.3 0.2,-0.3 0.3,-0.2 0.3,-0.2 0.2,-0.3 0.2,-0.3 0.3,-0.2 0.3,-0.2 0.2,-0.3 2,0 0.2,0.3 0.3,0.2 0.3,0.2 0.2,0.3 0.2,0.3 0.3,0.2 0.3,0.2 0.2,0.3 14.2,14.3 q 14.3,14.2 14.6,15.2 0.2,1 14.2,10.2 14,9.3 29,16.3 15,7 17.5,8 2.5,1 4.5,1.5 l 2,0.5 1,0.5 1,0.5 0.2,0.3 0.3,0.2 0.3,0.2 0.2,0.3 1.5,0.5 1.5,0.5 -0.2,0.3 -0.3,0.2 -0.3,0.2 -0.2,0.3 -0.2,0.3 -0.3,0.2 -0.3,0.2 -0.2,0.3 -0.2,0.3 -0.3,0.2 -0.3,0.2 -0.2,0.3 -0.2,0.3 -0.3,0.2 -0.3,0.2 -0.2,0.3 -1,0.5 -1,0.5 -0.2,0.3 q -0.29999,0.20001 -0.59998,0.40002 -0.20001,0.29999 -8.2,4.3 -7.99999,4.00001 -24.5,9 -16.50001,4.99999 -40,9 -23.49999,4.00001 -48.5,6.3 l -25,2.2 0.2,-1 0.3,-1 0.3,-0.2 0.2,-0.3 -0.2,-0.3 -0.3,-0.2 -0.3,-0.2 -0.2,-0.3 0.2,-0.3 q 0.3,-0.20001 2,-3 l 1.8,-2.7 0.2,-0.3 0.3,-0.2 0.3,-1 0.2,-1 -15.5,-0.2 q -15.5,-0.29999 -23,-0.79999 -7.5,-0.5 -24.5,-3 -17,-2.5 -34.5,-7.8 -17.5,-5.2 -20.7,-23.2 l -3.3,-18 0,-7 0.3,0.2 0.2,0.3 2,0.5 2,0.5 0.2,0.3 0.3,0.2 0.3,0.2 0.2,0.3 25,11.5 q 25,11.5 44.5,18 19.5,6.5 34.5,10 15,3.5 19,4 l 4,0.5 3,0.3 3,0.2 -0.2,-1 -0.3,-1 -0.3,-0.2 -0.2,-0.3 -0.2,-0.3 -0.3,-0.2 -0.3,-0.2 -0.2,-0.3 -1,-0.5 -1,-0.5 -0.2,-0.3 -0.3,-0.2 -0.3,-0.2 -0.2,-0.3 -1,-0.5 q -1,-0.5 -3.2,-1.8 -2.3,-1.2 -41.6,-24 -39.2,-22.7 -50.7,-30.7 -11.5,-8 -20.7,-16.3 -9.3,-8.2 -12.3,-19.7 -3,-11.5 -4.5,-23 -1.5,-11.5 8.5,-3.5 10,8 24.5,20 14.5,12 37.2,28.2 22.8,16.3 25.8,17.8 3,1.5 7.5,4.5 4.5,3 12.3,7.7 7.7,4.8 29,15 z"
         id="svg_7"
         style="stroke:none" />
      <g
         style="fill:#ffffff;stroke:none"
         id="g4151">
        <path
           inkscape:connector-curvature="0"
           d="m 742.8,674.8 -0.3,0.2 -0.3,0.2 -0.2,0.3 0,0.5 -0.5,0.2 q -0.5,0.29999 -3.5,2.3 l -3,2 -1,0.5 -1,0.5 -1.5,0.5 -1.5,0.5 -4,0 0.2,-0.3 0.3,-0.2 0.3,-0.2 0.2,-0.3 0.2,-0.3 0.3,-0.2 0.3,-0.2 0.2,-0.3 0.2,-0.3 0.3,-0.2 0.3,-0.2 0.2,-0.3 0.2,-0.3 0.3,-0.2 0.5,-1 q 0.5,-1 2.5,-5.5 l 2,-4.5 0,-3 -0.3,-0.2 -0.2,-0.3 -1,-0.5 -1,-0.5 -2,-0.5 q -2,-0.5 -9,-2 -7,-1.5 -25,-2 -18,-0.5 -29.5,0.5 -11.5,1 -40.5,11.5 -29,10.5 -54.5,22.5 -25.5,12 -47,25 l -21.5,13 -0.2,0.3 -0.3,0.2 -0.3,0.2 q -0.20001,0.29999 -0.40002,0.59998 l -0.3,0.2 -0.3,0.2 -0.2,0.3 -1,0.5 -1,0.5 -0.2,0.3 -0.3,0.2 -0.3,0.2 -0.2,0.3 -0.2,0.3 -0.3,0.2 -0.3,0.2 -0.2,0.3 -0.2,0.3 -0.3,0.2 -0.3,0.2 -0.2,0.3 -1,0.3 -1,0.2 0.2,-1 0.3,-1 0.3,-0.2 0.2,-0.3 0.2,-0.3 0.3,-0.2 0.3,-0.2 0.2,-0.3 0.2,-0.3 0.3,-0.2 0.3,-0.2 0.2,-0.3 0.2,-0.3 0.3,-0.2 0.3,-0.2 0.2,-0.3 0.2,-0.3 0.3,-0.2 0.3,-0.2 0.2,-0.3 0.2,-0.3 0.3,-0.2 0.3,-0.2 q 0.20001,-0.29999 7.2,-9.8 6.99999,-9.50001 13,-21.2 6,-11.8 8.5,-12.6 2.5,-0.70001 10,-6.7 7.5,-5.99999 13.7,-15.7 l 6.3,-9.8 0.5,-1.5 0.5,-1.5 0.5,-1 0.5,-1 0.3,0.2 0.2,0.3 0.2,0.3 0.3,0.2 0.5,1 0.5,1 4.3,6.8 q 4.2,6.7 24.4,2 20.3,-4.8 20.6,-4.8 l 0.20001,0 2,-0.2 2,-0.3 8,-2 q 8,-2 10,-2.5 l 2,-0.5 2,-0.3 2,-0.2 0,-2 -1,-0.2 -1,-0.3 -0.2,-0.3 -0.3,-0.2 -0.3,-0.2 -0.2,-0.3 -1,-0.5 -1,-0.5 -0.2,-0.3 q -0.29999,-0.20001 -7.6,-6.4 -7.2,-6.3 -10,-12.6 l -2.7,-6.2 -0.3,-1 -0.2,-1 1,-0.2 1,-0.3 1,-0.5 1,-0.5 5.5,-1.5 q 5.5,-1.5 29,-1 23.5,0.5 26.7,1.2 3.3,0.79999 3.8,6.3 0.5,5.50001 5.8,9.7 5.2,4.3 10.7,4.3 5.5,0 8.7,-3.3 3.3,-3.2 4.6,-5.7 1.2,-2.5 12.7,-4.3 11.5,-1.7 18.3,5 6.7,6.8 11.7,16.8 5,10 -2.7,19.2 -7.8,9.3 -8.8,9.8 -1,0.5 -1.2,0.79999 z"
           id="svg_8"
           style="stroke:none" />
        <path
           inkscape:connector-curvature="0"
           d="m 526,278.5 5,0 -0.2,0.3 -0.3,0.2 -0.3,0.2 -0.2,0.3 -0.2,0.3 -0.3,0.2 -0.3,0.2 -0.2,0.3 -1,0.5 -1,0.5 -1,0.5 -1,0.5 -0.2,0.3 -0.3,0.2 -0.3,0.2 -0.2,0.3 -1,0.5 q -1,0.5 -5,3 -4,2.5 -18,14 -14,11.5 -28,27.5 l -14,16 -0.2,0.3 -0.3,0.2 -0.5,1 -0.5,1 -0.3,0.2 -0.2,0.3 0,0.5 -0.5,0 -0.5,1 -0.5,1 -0.3,0.2 -0.2,0.3 -0.2,0.3 -0.3,0.2 -0.3,0.2 -0.2,0.3 -0.2,0.3 -0.3,0.2 -10.3,16.8 q -10.2,16.7 -10.4,17 l -0.3,0.2 -0.5,1 -0.5,1 -0.5,1 -0.5,1 -0.5,1 -0.5,1 -0.3,0.2 -0.2,0.3 -0.2,0.3 -0.3,0.2 -0.5,-2.5 -0.5,-2.5 -0.5,-4 q -0.5,-4 -2.2,-18 l -1.8,-14 -2,-16 q -2,-16 19.5,-28.8 21.5,-12.7 27,-15.2 5.5,-2.5 7,-3 l 1.5,-0.5 0,-0.5 1.5,-0.2 1.5,-0.3 16,-4 q 16,-4 21.5,-4.5 5.5,-0.5 10.5,-0.5 z"
           id="svg_9"
           style="stroke:none" />
        <path
           inkscape:connector-curvature="0"
           d="m 342.5,855 0,9 0.5,2 0.5,2 0.3,1 0.2,1 -2,0 -0.2,-1 -0.3,-1 -0.3,-0.2 -0.2,-0.3 -0.2,-0.3 -0.3,-0.2 -0.5,-1 -0.5,-1 -0.3,-0.2 -0.2,-0.3 -0.2,-0.3 -0.3,-0.2 -0.3,-0.2 -0.2,-0.3 -14.2,-18.7 q -14.3,-18.8 -13,-21 1.2,-2.3 8.7,-8.8 7.5,-6.5 16.5,-10.5 9,-4 24,-6.5 15,-2.5 50.5,-3.5 35.5,-1 38.5,-1 3,0 -4,4 -7,4 -41,13 -34,9 -42,13.5 -8,4.5 -11.8,8.2 -3.7,3.8 -5.7,8.8 -2,5 -2,14 z"
           id="svg_10"
           style="stroke:none" />
      </g>
      <path
         inkscape:connector-curvature="0"
         d="m 753.5,291.2 1.5,-0.2 -0.2,0.5 -0.3,0.5 -0.3,0.2 -0.2,0.3 1.5,0.5 1.5,0.5 -0.2,0.3 -0.3,0.2 -0.3,0.2 -0.2,0.3 10,0 -0.2,0.3 -0.3,0.2 -0.3,0.2 q -0.20001,0.29999 -1,1 -0.70001,0.79999 0,2.8 0.79999,2 -0.20001,1.5 l -1,-0.5 -0.2,1 q -0.29999,1 0,1 l 0.20001,0 -11.5,3.8 q -11.5,3.7 -12.5,4.2 -1,0.5 -1.8,-0.79999 -0.70001,-1.2 -1.4,1 -0.79999,2.3 -4.8,3.8 -4.00001,1.5 -8.8,2.2 -4.7,0.79999 -5,2.3 -0.20001,1.5 -2,1 -1.7,-0.5 -4.4,1.7 -2.8,2.3 -10.8,6.3 -8,4 -9,4.3 -1,0.20001 -2,1.4 -1,1.3 -6,4.8 -5,3.5 -6.8,3.8 -1.7,0.20001 -5.4,1.7 -3.8,1.5 -3.8,2.5 0,1 -4,3 -4,2 -7.5,5.8 -3.5,3.7 -6,4.7 -2.5,1 -4.3,2.3 -1.7,1.2 -2,2.7 -0.20001,1.5 -1.7,1.5 -1.49999,0 -1.5,1 -10e-6,1 -1,1 -0.99999,0 -2,2.5 -1.00001,2.5 -2.8,3 -1.7,0.5 -3.7,3 -2,2.5 -2.3,3.5 -0.20001,1 -3,2.5 -2.7,1.5 -4,2 -1.2,0.5 -1.2,2.5 0,2 -1.8,2.5 -1.7,0.5 -2,1.5 -0.20001,1 -1.7,1 -1.49999,0 -2,2.5 -0.50001,2.5 -2.3,3 -1.7,0.5 -3.4,3.5 -1.8,3 -3,3.5 -1.3,0.5 -1.6,1.5 -0.20001,1 -1.2,1 -1,0 -1,1.5 0,1.5 -1,1.5 -1,0 -1.5,2 -0.5,2 -2.7,3.5 -2.3,1.5 -2,2.5 0.20001,1 -0.79999,1 -1,0 -3.5,4.8 -2.5,4.7 -4,5.4 -1.5,0.79999 -3.7,5.3 -2.3,4.5 -3.3,6 -1,1.5 -4.5,7.5 -3.5,6 -4.8,8.2 -1.2,2.3 -0.70001,2.8 0.5,0.5 -1.5,0.79999 -2,0.20001 -2,3.2 0,2.99999 -1.5,3 -1.5,10e-6 -2.3,10 -0.70001,10 0.79999,19 1.5,9 4,15.5 2.5,6.5 4.8,11.5 2.2,5 3.2,5 1,0 2.5,3.8 1.5,3.7 3.5,6.7 2,3 6,4 4,1 8.5,1.7 4.5,0.79999 5,1.6 0.5,0.70001 1.5,0.20001 1,-0.5 5.5,0.20001 4.5,0.79999 5,1.6 0.5,0.70001 5,1.2 4.5,0.5 4.7,0.79999 0.29999,0.20001 0.59998,0.70001 l 0.2,0.5 0.20001,0 q 0.29999,0 0.59998,0.5 l 0.2,0.5 0,2.8 q 0,2.7 0.5,4.4 0.5,1.8 1.5,1.8 l 1,0 0,-2 1.5,0.2 1.5,0.3 -0.2,0.3 -0.3,0.2 -0.3,1.5 -0.2,1.5 -1.5,-0.2 -1.5,-0.3 -1,0 q -1,0 -2,0.29999 -1,0.20001 -1,1.2 0,1 -1,1 -1,0 -1.2,-1 -0.29999,-1 -0.79999,0 -0.5,1 -1.8,0.20001 -1.2,-0.70001 -3.7,-0.40002 l -2.5,0.2 -6,-0.2 q -6,-0.29999 -52,-3.8 -46,-3.50001 -59,-17.5 -13,-13.99999 -23.5,-29 -10.5,-15.00001 -20.7,-34.7 -10.3,-19.8 -18.3,-42.8 -8,-23 -12.7,-47.5 l -4.8,-24.5 0.5,0 0.5,-5.5 0.5,-5.5 0.3,1 0.2,1 2,0 0.2,-1 0.3,-1 0.3,-1.5 0.2,-1.5 1,0.2 1,0.3 0.2,0.3 0.3,0.2 0.3,0.2 0.2,0.3 0.2,0.3 0.3,0.2 0.3,0.2 0.2,0.3 0.5,0.3 0.5,0.2 1.8,14 q 1.7,14 2.2,18 l 0.5,4 0.5,2.5 0.5,2.5 0.3,-0.2 0.2,-0.3 0.2,-0.3 0.3,-0.2 0.5,-1 0.5,-1 0.5,-1 0.5,-1 0.5,-1 0.5,-1 0.3,-0.2 q 0.20001,-0.29999 10.4,-17 l 10.3,-16.8 0.3,-0.2 0.2,-0.3 0.2,-0.3 0.3,-0.2 0.3,-0.2 0.2,-0.3 0.2,-0.3 0.3,-0.2 0.5,-1 0.5,-1 1,0 0.5,1 0.5,1 0.3,-0.2 0.2,-0.3 0.2,-0.3 0.3,-0.2 0.5,1 0.5,1 0.3,0.2 0.2,0.3 0.2,0.3 0.3,0.2 0.3,1 0.2,1 -0.2,0.5 -0.3,0.5 -0.5,1 -0.5,1 -8.5,14.5 q -8.5,14.5 -14.5,29 -6,14.5 1.5,34.5 7.5,20 18.8,40.2 11.2,20.3 23.7,36.8 12.5,16.5 19,24 6.5,7.5 25.5,9.5 19,2 25,2.5 l 6,0.5 5,0 -0.2,-0.3 -0.3,-0.2 -0.5,-1 -0.5,-1 -0.5,-1 -0.5,-1 -6,-14.5 q -6,-14.5 -8.5,-27 -2.5,-12.5 -2,-25.5 0.5,-13 15,-38.5 14.5,-25.5 28,-43 13.5,-17.5 27.8,-30.7 14.2,-13.3 32.2,-25.3 18,-12 39,-22 21,-10 44.5,-18 23.5,-8 25,-8.3 z m -55.3,35.6 q -0.20001,-0.29999 0,-0.59998 0.29999,-0.20001 0.29999,0.29999 0,0.5 -0.29999,0.29999 z m -284,30 q -0.20001,-0.29999 0,-0.59998 0.29999,-0.20001 0.29999,0.29999 0,0.5 -0.29999,0.29999 z m 220,14 q -0.20001,-0.29999 0,-0.59998 0.29999,-0.20001 0.29999,0.29999 0,0.5 -0.29999,0.29999 z M 624,379 q 0,-1 1.2,-0.5 1.3,0.5 0,1 Q 624,380 624,379 Z m -29.8,32.8 q -0.20001,-0.29999 0,-0.59998 0.29999,-0.20001 0.29999,0.29999 0,0.5 -0.29999,0.29999 z m -33,53 q -0.20001,-0.29999 0,-0.59998 0.29999,-0.20001 0.29999,0.29999 0,0.5 -0.29999,0.29999 z m -1,38 q -0.20001,-0.29999 0,-0.59998 0.29999,-0.20001 0.29999,0.29999 0,0.5 -0.29999,0.29999 z m 60,50 q -0.20001,-0.29999 0,-0.59998 0.29999,-0.20001 0.29999,0.29999 0,0.5 -0.29999,0.29999 z"
         id="svg_11"
         style="stroke:none" />
      <path
         inkscape:connector-curvature="0"
         d="M 446.5,1.2 447,1 l 1,0.5 q 1,0.5 1.2,2.5 l 0.3,2 1.5,6.5 q 1.5,6.5 2,7 0.5,0.5 0.79999,0.7 l 0.2,0.3 7.5,-1.5 q 7.5,-1.5 25,-4 17.5,-2.5 36,-3.5 18.5,-1 27.7,-0.3 9.3,0.8 10,1.6 0.79999,0.7 1.8,0.2 1.00001,-0.5 4.5,0 3.49999,0.5 12,2 8.50001,1.5 10.7,2.2 2.3,0.8 2.6,1.3 l 0.2,0.5 -0.5,0.2 q -0.5,0.3 -4.3,3 -3.7,2.8 -3,3.6 0.79999,0.7 -0.70001,1.2 l -1.5,0.5 -0.2,-0.3 -0.3,-0.2 -0.3,0.2 -0.2,0.3 -1,0.5 -1,0.5 -1,0.5 -1,0.5 1,0.5 1,0.5 0.2,0.3 0.3,0.2 0.3,1 0.2,1 1,0.2 1,0.3 0,0.5 -2,-0.2 -2,-0.3 -3,-0.5 q -3,-0.5 -16.5,-1.5 -13.5,-1 -36,0.5 -22.5,1.5 -52,7 -29.5,5.5 -40.5,13 -11,7.5 -21.8,17.8 -10.7,10.2 -22.7,24.2 l -12,14 -0.5,1 -0.5,1 -0.3,0.2 -0.2,0.3 -0.2,0.3 -0.3,0.2 -0.3,0.2 -0.2,0.3 -0.2,0.3 -0.3,0.2 -0.3,1.5 -0.2,1.5 -2,0 0.2,-1 0.3,-1 0.5,-1 0.5,-1 0.5,-1 0.5,-1 0.5,-1 0.5,-1 9.3,-17.2 q 9.2,-17.3 21,-32.6 11.7,-15.2 17.2,-20.7 5.5,-5.5 5.8,-5.7 l 0.2,-0.3 0.2,-0.3 0.3,-0.2 0.3,-0.2 0.2,-0.3 0.2,-0.3 0.3,-0.2 0.3,-0.2 0.2,-0.3 0.2,-0.3 0.3,-0.2 0.3,-0.2 0.2,-0.3 0.2,-0.3 0.3,-0.2 0.3,-0.2 0.2,-0.3 0.2,-0.3 0.3,-0.2 0.3,-0.2 0.2,-0.3 0.2,-0.3 0.3,-0.2 0.3,-0.2 0.2,-0.3 -3,0 -1.5,0.5 -1.5,0.5 -1,0.5 -1,0.5 -1.5,0.5 q -1.5,0.5 -21.5,10.5 -20,10 -54.5,33 -34.5,23 -44.7,42.7 -10.3,19.8 -19.8,46.3 -9.5,26.5 -15,50.5 -5.5,24 -8,49.5 l -2.5,25.5 -0.5,-2.5 -0.5,-2.5 -0.5,-4.5 q -0.5,-4.5 -0.5,-35 0,-30.5 4,-54 4,-23.5 12,-50.5 l 8,-27 0.5,-1.5 0.5,-1.5 0.5,-1.5 0.5,-1.5 0.3,-1 0.2,-1 -1,0.2 -1,0.3 -0.2,0.3 -0.3,0.2 -0.3,0.2 -0.2,0.3 -1,0.5 -1,0.5 -1,0.5 -1,0.5 -18.2,12.3 q -18.3,12.2 -33.3,25.7 -15,13.5 -30.5,32 -15.5,18.5 -20.5,35.5 -5,17 -7,31.5 -2,14.5 -2,30.5 l 0,21 -0.5,-1.5 -0.5,-1.5 -0.5,-2 -0.5,-2 -0.5,-1.5 q -0.5,-1.5 -2,-9 -1.5,-7.5 -4,-40.5 l -2.5,-33 -0.5,1.5 -0.5,1.5 -0.5,1 -0.5,1 -0.5,1.5 -0.5,1.5 -6,16.5 q -6,16.5 -9,32 -3,15.5 -3.3,16 l -0.2,0.5 -1.8,3.5 q -1.7,3.5 -2.2,5 l -0.5,1.5 -0.3,-0.2 -0.2,-0.3 -0.2,-0.3 -0.3,-0.2 -0.3,-0.2 -0.2,-0.3 -0.2,-0.3 -0.3,-0.2 -0.5,1 -0.5,1 -0.5,-1 -0.5,-1 -0.5,-1.5 q -0.5,-1.5 -1,0 -0.5,1.5 -2,-3.5 -1.5,-5 -4.2,-5.5 l -2.8,-0.5 0,-1 0.2,-0.5 q 0.3,-0.5 0.60001,-0.5 l 0.2,0 0.2,-1.5 q 0.3,-1.5 0.3,-2 0,-0.5 1.3,-8 1.2,-7.5 2.2,-7.5 1,0 2.2,-7.5 1.3,-7.5 4.3,-16 3,-8.5 4.5,-13 1.5,-4.5 2.5,-7 1,-2.5 2.5,-5 1.5,-2.5 3.2,-7.5 1.8,-5 2.8,-5 1,0 3,-5 2,-5 3,-5 1,0 1,-1 l 0,-1 2.8,1 q 2.7,1 4.4,1.5 1.8,0.5 3,2.5 1.3,2 1.6,3 l 0.2,1 3,0 1.5,-2.8 q 1.5,-2.7 6.3,-9.4 4.7,-6.8 5.4,-7.6 0.8,-0.7 2,-2 1.3,-1.2 1,-2.2 -0.2,-1 2.6,-3.5 2.7,-2.5 12.4,-14 9.8,-11.5 12.3,-12.7 2.5,-1.3 8,-6.3 5.5,-5 6.5,-5.3 1,-0.2 2.5,-2 1.5,-1.7 5.5,-4.4 4,-2.8 4,-3.8 0,-1 1.8,-1 1.7,0 2,-1 0.2,-1 1.2,-1 1,0 1,-1 0,-1 2,-1.8 2,-0.7 3.5,-1.7 1.5,-1 3,-2 1.5,-1 3.5,-2.5 2,-1.5 4,-2.2 2,-0.8 2,-1.8 0,-1 18.5,-10.2 18.5,-9.3 20.5,-9.6 l 2,-0.2 0.2,2 q 0.29999,2 0.79999,4 l 0.5,2 0.3,0.2 0.2,0.3 0.2,0.3 0.3,0.2 0.3,-0.2 0.2,-0.3 0.2,-0.3 0.3,-0.2 0.3,-0.2 0.2,-0.3 0.2,-0.3 0.3,-0.2 0.3,-0.2 0.2,-0.3 3.5,-2.5 q 3.5,-2.5 10.7,-8.2 7.3,-5.8 7.6,-6.8 0.20001,-1 1.2,-1 1,0 1,-1 0,-1 3.2,-2.5 3.3,-1.5 3.6,-3 0.20001,-1.5 4.2,-3 3.99999,-1.5 6,-3.7 2,-2.3 5,-3.6 3,-1.2 3,-2.2 0,-1 9.5,-6 9.5,-5 9.5,-6 0,-1 2.5,-1.8 2.5,-0.7 5,-1.7 2.5,-1 16.5,-8 14,-7 30,-12 16,-5 20.5,-6 4.5,-1 5,-1.3 z m 105.7,12.6 q -0.20001,-0.3 0,-0.6 0.29999,-0.2 0.29999,0.3 0,0.5 -0.29999,0.3 z m -350,122 q -0.2,-0.3 0,-0.60001 0.3,-0.2 0.3,0.3 0,0.5 -0.3,0.3 z m -57,44.4 q 0.3,-0.2 0.60001,0 0.2,0.3 -0.3,0.3 -0.5,0 -0.3,-0.3 z"
         id="svg_12"
         style="stroke:none" />
    </g>
    <path
       style="fill-rule:evenodd;stroke:none;stroke-width:0.5"
       inkscape:connector-curvature="0"
       d="m 174.2,738.2 0.3,-0.2 0,2 -0.5,1 -0.5,1 -0.5,1 -0.5,1 -0.5,1 -0.5,1 -10,26 q -10,26 -15,48 -5,22 -6,31 -1,9 -0.5,25.5 0.5,16.5 10,32.5 9.5,16 9.8,16.5 l 0.2,0.5 0.2,1.5 0.3,1.5 0.7,3.5 q 0.8,3.5 -0.2,3.7 -1,0.29999 -0.8,0.59998 l 0.3,0.2 0.3,0.2 0.2,0.3 -4,0 0.2,0.3 0.3,0.2 1.7,3.5 q 1.8,3.5 0.8,3.5 -1,0 -1.8,-1.5 -0.7,-1.5 -1.2,-3 l -0.5,-1.5 -0.3,-0.2 -0.2,-0.3 -0.2,-0.3 -0.3,-0.2 -0.3,-0.2 q -0.2,-0.29999 -0.7,-1.6 -0.5,-1.2 -2,-1.4 -1.5,-0.29999 -3.7,-2 l -2.3,-1.8 -0.3,-0.2 -0.2,-0.3 -0.2,-0.3 -0.3,-0.2 -0.3,-0.2 -0.2,-0.3 -0.2,-0.3 -0.3,-0.2 -0.3,-0.2 -0.2,-0.3 -4,0 0,0.5 -0.2,0 q -0.3,0 -1.3,-2.5 -1,-2.5 -2.3,-3 -1.2,-0.5 -1.2,-1.5 0,-1 1,-1.2 1,-0.29999 -0.5,-0.59998 -1.5,-0.20001 -3.7,-5.2 -2.3,-5 -3,-7.5 -0.8,-2.5 -1.8,-2.5 -1,0 -1.8,-3 -0.7,-3 -1.2,-6 l -0.5,-3 0.5,-2 0.5,-2 0.3,-0.2 0.2,-0.3 -0.2,-0.3 -0.3,-0.2 -0.5,-1 -0.5,-1 -0.3,0.2 -0.2,0.3 -0.2,0.3 -0.3,0.2 -0.3,0.2 -0.2,0.3 -0.2,0.3 -0.3,0.2 -0.3,0.2 -0.2,0.3 -0.2,0.3 -0.3,0.2 -0.3,0.2 -0.2,0.3 -0.2,0.3 -0.3,0.2 -0.5,1 -0.5,1 -0.3,0.2 -0.2,0.3 -0.2,0.3 -0.3,0.2 0.3,2.8 q 0.2,2.7 0.39999,3 0.3,0.20001 0.8,2.2 l 0.5,2 0.3,0.2 0.2,0.3 -1,0.5 -1,0.5 -2,0 -0.2,-0.3 -0.3,-0.2 -0.3,-0.2 -0.2,-0.3 -0.2,-0.3 -0.3,-0.2 -0.3,0.2 -0.2,0.3 -2,0 -0.2,-0.3 -0.3,-0.2 -0.5,-1 -0.5,-1 -0.3,-0.2 -0.2,-0.3 -1,-0.3 q -1,-0.20001 -4.2,-11.2 -3.3,-11 -7.3,-24.5 -4,-13.5 -3.3,-14 0.8,-0.5 0.8,-6 0,-5.5 -1,-5.5 -1,0 -1,-1.8 0,-1.7 -1,-4.7 -1,-3 -2,-6.7 -1,-3.8 -1.8,-4.3 l -0.7,-0.5 0.3,-0.2 0.2,-0.3 -0.2,-0.3 -0.3,-0.2 -0.3,-0.2 -0.2,-0.3 0.2,-0.3 0.3,-0.2 0.3,-0.2 0.2,-0.3 -0.2,-0.3 -0.3,-0.2 -0.5,-1 -0.5,-1 -0.3,-1 -0.2,-1 0,-1 0.5,0 0.3,0.2 0.2,0.3 0.2,0.3 0.3,0.2 0.3,0.2 0.2,0.3 0.2,0.3 0.3,0.2 0.3,0.2 0.2,0.3 1.2,0.3 q 1.3,0.20001 1.8,1.2 l 0.5,1 0.5,1 0.5,1 0.3,-0.2 0.2,-0.3 0.2,-0.3 0.3,-0.2 0.5,-1.5 0.5,-1.5 0.5,-1.5 q 0.5,-1.5 1.8,-1 l 1.2,0.5 0,-7 0.5,0 0.5,1.5 0.5,1.5 7,25 q 7,25 7.5,26.5 l 0.5,1.5 0.5,2 0.5,2 0.5,1 0.5,1 0.5,-2.5 0.5,-2.5 0.5,-4.5 q 0.5,-4.5 1,-8 0.5,-3.5 4.5,-18 4,-14.5 11.5,-31 7.5,-16.5 20.2,-36.7 l 12.8,-20.3 0.2,-0.3 0.3,-0.2 0.3,-0.2 0.2,-0.3 0.2,-0.3 0.3,-0.2 0.5,-1 0.5,-1 0.3,-0.2 0.2,-0.3 0.2,-0.3 0.3,-0.2 0.5,-1 0.5,-1 0.3,-0.2 0.2,-0.3 0.2,-0.3 z M 108,897 q 0,-1 1.5,-0.20001 1.5,0.70001 0,1 Q 108,898 108,897 Z m 25.2,14.2 q 0.3,-0.20001 0.60001,0 0.2,0.29999 -0.3,0.29999 -0.5,0 -0.3,-0.29999 z"
       id="svg_13" />
    <path
       style="fill-rule:evenodd;stroke:none;stroke-width:0.5"
       inkscape:connector-curvature="0"
       d="m 649.8,42.2 0.2,0.3 0.2,0.3 0.3,0.2 0.3,0.2 0.2,0.3 0.2,0.3 0.3,0.2 0.3,1 0.2,1 -1.5,0.2 -1.5,0.3 -2,0 -0.2,-0.3 q -0.29999,-0.2 -1,0.6 -0.79999,0.7 -3.3,1.7 -2.50001,1 -5.7,2.3 -3.3,1.2 -13,5 -9.8,3.7 -12,4.4 -2.3,0.8 -7,2.8 -4.8,2 -5,3 -0.29999,1 -17,9 -16.8,8 -16.8,9 0,1 -4,2.8 -4,1.7 -24.5,16.2 -20.5,14.5 -34.3,27.8 -13.7,13.2 -23.4,25.4 -9.8,12.3 -19.3,27.8 -9.5,15.5 -15.7,31.2 -6.3,15.8 -10.3,29.8 -4,14 -4.5,15 -0.5,1 -1.5,7.5 -1,6.5 -1.3,13.5 l -0.2,7 -2,0 0.2,1 0.3,1 0,1 -0.3,1 -0.2,1 2,0 0,-2 3.5,-1.2 q 3.5,-1.3 5,-2.3 1.5,-1 3.7,-1.7 2.3,-0.79999 4,-1.6 1.8,-0.70001 2.6,-1 0.70001,-0.20001 3.4,-2 2.8,-1.7 4.8,-2 2,-0.20001 2,-1.2 0,-1 7.8,-3 7.7,-2 8.2,-1.5 0.5,0.5 0.79999,0.29999 l 0.2,-0.3 0.2,-0.3 0.3,-0.2 0.3,-0.2 0.2,-0.3 1,-0.3 1,-0.2 0,-2 1,0.2 1,0.3 0,1 0.2,0.3 0.3,0.2 0.3,0.2 0.2,0.3 0.2,0.3 0.3,0.2 0.3,0.2 0.2,0.3 -1,0.5 -1,0.5 -0.2,0.3 -0.3,0.2 -0.3,0.2 q -0.20001,0.29999 -3.2,2.6 l -3,2.2 0,3 1,0.2 1,0.3 1.5,0.5 1.5,0.5 -0.2,0.3 -0.3,0.2 -0.3,1.5 -0.2,1.5 0,0.5 -1.5,0.5 q -1.5,0.5 -7,3 -5.5,2.5 -27,15.2 -21.5,12.8 -19.5,28.8 l 2,16 -0.5,-0.2 -0.5,-0.3 -0.2,-0.3 -0.3,-0.2 -0.3,-0.2 -0.2,-0.3 -0.2,-0.3 -0.3,-0.2 -0.3,-0.2 -0.2,-0.3 -1,-0.3 -1,-0.2 -0.2,1.5 -0.3,1.5 -0.5,2 q -0.5,2 -0.79999,2.2 -0.20001,0.29999 -1,-2 l -0.7,-2.2 -0.5,5.5 -0.5,5.5 -0.5,0 -0.2,-1.5 -0.3,-1.5 -1,-12 q -1,-12 -0.5,-36 0.5,-24 4.5,-47 4,-23 11.5,-45 7.5,-22 17.8,-40.8 10.2,-18.7 22,-34 11.7,-15.2 26,-29 14.2,-13.7 32.7,-26.2 18.5,-12.5 38,-22 19.5,-9.5 32,-14 12.5,-4.5 14,-5 l 1.5,-0.5 1.5,-0.5 1.5,-0.5 1,-0.5 1,-0.5 -0.2,-0.3 -0.3,-0.2 -0.3,-0.2 -0.2,-0.3 -1,-0.5 -1,-0.5 -1,-0.5 -1,-0.5 -1,-0.5 -1,-0.5 -1.5,-0.5 q -1.5,-0.5 -13,-4.2 l -11.5,-3.8 0,-0.5 -1,-0.3 -1,-0.2 -0.2,-1 -0.3,-1 -0.3,-0.2 -0.2,-0.3 -1,-0.5 -1,-0.5 1,-0.5 1,-0.5 1,-0.5 1,-0.5 0.2,-0.3 0.3,-0.2 0.3,0.2 0.2,0.3 1.5,-0.5 q 1.5,-0.5 0.70001,-1.2 -0.70001,-0.8 3,-3.6 3.8,-2.7 4.3,-3 l 0.5,-0.2 1.5,-0.2 q 1.5,-0.3 7.7,1.4 6.3,1.8 8.6,2.6 2.2,0.7 10.2,3.7 8,3 12.5,4.7 4.5,1.8 4.5,2.8 0,1 4.2,2.5 4.3,1.5 6,2.5 1.8,1 2,2 0.29999,1 0.59998,1.2 z"
       id="svg_14" />
    <path
       style="fill-rule:evenodd;stroke:none;stroke-width:0.5"
       inkscape:connector-curvature="0"
       d="m 825.8,281.2 0.2,0.3 1,0.5 1,0.5 -1,0.3 -1,0.2 0.2,1 0.3,1 0.3,1.5 0.2,1.5 -2.5,0.2 q -2.5,0.29999 -2.7,0.59998 -0.29999,0.20001 -6.6,1.4 -6.2,1.3 -12.7,1.6 -6.5,0.20001 -6.5,1.2 0,1 -1.5,0.79999 -1.5,-0.29999 -2,1 -0.5,1.2 -2,1 -1.5,-0.29999 -9.5,1.7 -8,1.99999 -10.5,2.3 -2.5,0.20001 -2.5,1.2 l 0,1 -5,0 0,-2 0.8,-2 q 0.70001,-2 1,-2.2 0.20001,-0.29999 0.40002,-0.59998 l 0.3,-0.2 0.3,-0.2 0.2,-0.3 -10,0 0.2,-0.3 0.3,-0.2 0.3,-0.2 0.2,-0.3 -1.5,-0.5 -1.5,-0.5 0.2,-0.3 0.3,-0.2 0.3,-0.5 0.2,-0.5 0.5,0 0.3,-0.2 0.2,-0.3 2,-0.5 2,-0.5 16.5,-4 q 16.5,-4 19,-4.5 l 2.5,-0.5 2,-0.5 2,-0.5 1.5,-0.5 1.5,-0.5 -1,-0.5 -1,-0.5 -1.5,-0.5 -1.5,-0.5 -1.5,-0.5 -1.5,-0.5 -1,-0.5 q -1,-0.5 -25,-8 -24,-7.5 -47,-11.5 -23,-4 -45,-4 -22,0 -33.5,4.5 -11.5,4.5 -27.5,13.5 -16,9 -27.2,18.7 l -11.3,9.8 -0.3,0.2 -0.2,0.3 -0.2,0.3 -0.3,0.2 -0.3,0.2 -0.2,0.3 -0.2,0.3 -0.3,0.2 -0.3,0.2 -0.2,0.3 -0.2,0.3 -0.3,0.2 -0.3,0.2 -0.2,0.3 -0.2,0.3 -0.3,0.2 -0.3,0.2 -0.2,0.3 -0.2,0.3 -0.3,0.2 -0.3,0.2 -0.2,0.3 -0.2,0.3 -0.3,0.2 -0.3,1 -0.2,1 -2,0 0.2,-1 0.3,-1 0.3,-0.2 0.2,-0.3 0.2,-0.3 0.3,-0.2 0.3,-0.2 0.2,-0.3 0.2,-0.3 0.3,-0.2 0.5,-1 0.5,-1 0.3,-0.2 0.2,-0.3 0.2,-0.3 0.3,-0.2 0.5,-1 0.5,-1 0.3,-0.2 0.2,-0.3 6.8,-10.7 q 6.7,-10.8 7.2,-11.8 l 0.5,-1 0.3,-0.2 0.2,-0.3 0.2,-0.3 0.3,-0.2 0.5,-1 0.5,-1 0.5,-1 0.5,-1 0.3,-0.2 0.2,-0.3 -2,0 -1.5,0.5 -1.5,0.5 -1.5,0.5 -1.5,0.5 -2,0.5 q -2,0.5 -16,5.5 -14,5 -32,14.5 -18,9.5 -33,21 -15,11.5 -27.2,25.2 l -12.3,13.8 -0.3,0.2 -0.2,0.3 -0.2,0.3 -0.3,0.2 -0.5,1 -0.5,1 -0.3,0.2 -0.2,0.3 -0.2,0.3 -0.3,0.2 -0.5,0 -0.2,-1 -0.3,-1 -0.3,-0.2 -0.2,-0.3 -0.2,-0.3 -0.3,-0.2 -0.5,-1 -0.5,-1 -0.3,0.2 -0.2,0.3 -0.2,0.3 -0.3,0.2 -0.5,-1 -0.5,-1 -0.5,0 0,-0.5 0.2,-0.3 0.3,-0.2 0.5,-1 0.5,-1 0.3,-0.2 0.2,-0.3 14,-16 q 14,-16 28,-27.5 14,-11.5 18,-14 4,-2.5 5,-3 l 1,-0.5 0.2,-0.3 0.3,-0.2 0.3,-0.2 0.2,-0.3 1,-0.5 1,-0.5 1,-0.5 1,-0.5 0.2,-0.3 0.3,-0.2 0.3,-0.2 0.2,-0.3 0.2,-0.3 0.3,-0.2 0.3,-0.2 0.2,-0.3 -5,0 q -5,0 -10.5,0.5 -5.5,0.5 -21.5,4.5 l -16,4 -1.5,0.3 -1.5,0.2 0.2,-1.5 0.3,-1.5 0.3,-0.2 0.2,-0.3 -1.5,-0.5 -1.5,-0.5 -1,-0.3 -1,-0.2 0,-3 3,-2.2 q 3,-2.3 3.2,-2.6 l 0.3,-0.2 0.3,-0.2 0.2,-0.3 1,-0.5 1,-0.5 -0.2,-0.3 -0.3,-0.2 -0.3,-0.2 -0.2,-0.3 -0.2,-0.3 -0.3,-0.2 -0.3,-0.2 -0.2,-0.3 0,-0.5 0.5,-1.5 q 0.5,-1.5 5,-2 4.5,-0.5 4.7,0.5 0.29999,1 1,0.20001 0.79999,-0.70001 2.3,-1.7 1.5,-1 2.5,-0.5 1,0.5 1.5,-0.79999 0.5,-1.2 1.5,-1.2 1,0 1.5,0.79999 0.5,0.70001 1.5,0.40002 1,-0.20001 1,-1.2 0,-1 2,-0.5 2,0.5 2.2,1.5 0.29999,1 0.59998,-0.5 0.20001,-1.5 7,-3 6.7,-1.5 7,0 0.20001,1.5 1,1 0.70001,-0.5 3.4,-2.3 2.8,-1.7 5.6,-2 2.7,-0.20001 6.4,-1 3.8,-0.70001 6.8,-0.40002 3,0.20001 3.5,1 0.5,0.70001 2,0.40002 1.5,-0.20001 1.5,0.79999 0,1 1,1 1,0 0.5,1.2 -0.5,1.3 4,1.3 4.5,0 3.5,-0.5 -1,-0.5 2.8,-1.2 3.7,-0.79999 6,-2.6 2.2,-1.7 5.4,-2 3.3,-0.20001 3.6,-1.2 l 0.2,-1 1.8,-0.5 q 1.7,-0.5 2.4,0.3 0.79999,0.7 1.8,-0.8 1.00001,-1.5 3,-1.2 2,0.2 2,-0.8 0,-1 1,-1 1,0 1,1 0,1 3.5,-0.5 3.5,-1.5 4,-2.3 0.5,-0.7 1.3,0 0.70001,0.8 0.40002,-0.39999 -0.20001,-1.3 2.8,-2.3 3.00001,-1 4.5,-1 1.49999,0 1.7,-0.3 l 0.3,-0.2 0.3,-0.2 0.2,-0.3 0.2,-0.3 0.3,-0.2 0.3,0.2 0.2,0.3 0.2,0.3 0.3,0.2 0.3,0.2 0.2,0.3 1,0.5 1,0.5 0.5,0.5 q 0.5,0.5 -1,0.8 -1.5,0.2 -1.5,1.7 0,1.5 1.5,1.5 1.5,0 1.3,1 l -0.3,1 -0.3,0.2 -0.2,0.3 1,0.5 1,0.5 0.2,0.3 0.3,0.2 0.3,-1.5 q 0.20001,-1.5 2,-1.5 1.7,0 6,-1 4.2,-1 4.2,-2 0,-1 2.5,-2 2.5,-1 3,-0.2 0.5,0.7 1.5,0.2 1,-0.5 3,-2 2,-1.5 3,-1.8 1,-0.2 1.2,0.8 0.29999,1 1,0.2 0.79999,-0.7 2.8,-0.7 2.00001,0 0.79999,-0.7 -1.3,-0.8 1,-1.6 2.2,-0.7 3.4,-1 1.3,-0.2 2,-1.4 0.79999,-1.3 2.8,-1.3 2.00001,0 3.5,-0.5 1.49999,-0.5 2.5,-0.2 1,0.2 1,-1.3 0,-1.5 3,-1.5 3,0 3,-1 0,-1 1,-1 1,0 1.5,0.8 0.5,0.7 3,0 2.5,-0.8 2.5,0.2 0,1 2.5,0.2 2.5,-0.7 4.5,-0.2 2,0.5 9.5,0.8 7.5,0.2 7.5,1.2 0,1 -1.5,1.2 -1.5,0.3 1.5,0 3,-0.2 3.8,1.3 0.70001,1.5 1,0.5 0.20001,-1 3.4,-0.5 3.3,0.5 3,1.3 -0.20001,0.7 0.79999,1 1,0.2 1,-1.3 0,-1.5 4.2,0 4.3,1.5 5.3,1.5 1,0 4.3,0.2 3.2,0.3 2.7,0.8 -0.5,0.5 2.3,0.8 2.7,0.2 3.4,0.7 0.79999,0.5 0.79999,-0.5 0,-1 2.2,-0.5 2.3,0.5 3.6,1 1.2,0.5 1.7,1.3 0.5,0.7 2.5,0.39999 2,-0.2 2.2,1.3 0.29999,1.5 0.59998,0.5 0.20001,-1 5.7,0.2 5.5,1.3 5,1.8 -0.5,0.5 0.70001,1.2 1.3,0.8 1.8,-0.7 0.5,-1.5 1.2,-0.7 0.79999,0.7 1.8,1.2 1.00001,0.5 6.5,1.5 5.49999,1 10.5,3.5 5.00001,2.5 6,2.2 1,-0.2 1.2,1.3 0.29999,1.5 0.59998,0.5 0.20001,-1 2,0 1.7,1 2,2 0.20001,1 3.7,2.2 3.5,1.3 2.5,1.8 -1,0.5 1.5,0.5 2.5,0 4.7,1.3 2.3,1.2 3,2.4 0.79999,1.3 3,2 2.3,0.79999 4,1.8 1.8,1 1.8,2 0,1 1,1 1,0 1,1.8 0,1.7 2.2,2 2.3,0.20001 2.3,1.7 0,1.49999 0.29999,1.7 z M 665.2,234.8 q -0.20001,-0.3 0,-0.60001 0.29999,-0.2 0.29999,0.3 0,0.5 -0.29999,0.3 z m 62,6 q -0.20001,-0.3 0,-0.60001 0.29999,-0.2 0.29999,0.3 0,0.5 -0.29999,0.3 z m 27,6 q -0.20001,-0.3 0,-0.60001 0.29999,-0.2 0.29999,0.3 0,0.5 -0.29999,0.3 z m -169,8 q -0.20001,-0.3 0,-0.60001 0.29999,-0.2 0.29999,0.3 0,0.5 -0.29999,0.3 z m 195,0 q -0.20001,-0.3 0,-0.60001 0.29999,-0.2 0.29999,0.3 0,0.5 -0.29999,0.3 z M 579,255.2 q 1,-0.2 0.79999,0.8 -0.29999,1 -1.6,1.5 -1.2,0.5 -0.70001,-0.70001 0.5,-1.3 1.5,-1.6 z m -4.8,2.6 q -0.20001,-0.29999 0,-0.59998 0.29999,-0.20001 0.29999,0.29999 0,0.5 -0.29999,0.29999 z m -25,4 q -0.20001,-0.29999 0,-0.59998 0.29999,-0.20001 0.29999,0.29999 0,0.5 -0.29999,0.29999 z"
       id="svg_15" />
    <path
       style="fill-rule:evenodd;stroke:none;stroke-width:0.5"
       inkscape:connector-curvature="0"
       d="m 97.2,225.5 0.3,1.5 0.3,1.8 q 0.2,1.7 1.4,7.4 1.3,5.8 2,6.3 0.8,0.5 2,9 1.3,8.5 2.3,13.5 1,5 1.5,8.5 l 0.5,3.5 0.5,2.5 0.5,2.5 0.5,-3.5 0.5,-3.5 0.3,-1.5 0.2,-1.5 0,-1 0.2,-0.5 q 0.3,-0.5 0.60001,-0.5 l 0.2,0 1.5,1.2 q 1.5,1.3 2.7,2 1.3,0.79999 2.3,5.3 1,4.50001 1.5,3 0.5,-1.50001 1,0 l 0.5,1.5 0.5,1 0.5,1 0.5,-1 0.5,-1 0.3,-0.2 q 0.2,-0.29999 1.7,-0.59998 1.5,-0.20001 3,-3.7 l 1.5,-3.5 -1.2,14 q -1.3,14 -0.8,45.5 0.5,31.5 3.5,43.5 3,12 11,30.5 8,18.5 18.5,35 10.5,16.5 14.5,21.5 4,5 4.5,6 l 0.5,1 0.3,0.2 0.2,0.3 0.2,0.3 0.3,0.2 0.3,0.2 0.2,0.3 0.2,0.3 0.3,0.2 0.3,0.2 0.2,0.3 0.2,0.3 0.3,0.2 0.3,0.2 0.2,0.3 0.2,0.3 0.3,0.2 0.5,1 0.5,1 0.3,0.2 0.2,0.3 1,0.5 1,0.5 0.2,0.3 0.3,0.2 0.3,0.2 0.2,0.3 0.2,0.3 0.3,0.2 0.3,1 0.2,1 -1,-0.2 -1,-0.3 -0.2,-0.3 -0.3,-0.2 -0.3,-0.2 -0.2,-0.3 -0.2,-0.3 -0.3,-0.2 -0.3,-0.2 -0.2,-0.3 -0.2,-0.3 -0.3,-0.2 -0.3,-0.2 -0.2,-0.3 -0.2,-0.3 -0.3,-0.2 -0.3,-0.2 -0.2,-0.3 -0.2,-0.3 -0.3,-0.2 -0.3,-0.2 -0.2,-0.3 -1,-0.5 -1,-0.5 -0.2,-0.3 -0.3,-0.2 -0.3,-0.2 -0.2,-0.3 -0.2,-0.3 -0.3,-0.2 -0.3,-0.2 -0.2,-0.3 -0.2,-0.3 -0.3,-0.2 -0.3,-0.2 q -0.2,-0.29999 -7.4,-7 -7.3,-6.8 -18.3,-19.3 -11,-12.5 -21.3,-28.7 -10.2,-16.3 -18,-34.6 -7.7,-18.2 -13.2,-39.7 -5.5,-21.5 -8,-47 l -2.5,-25.5 -0.5,-2 -0.5,-2 -0.5,1.5 -0.5,1.5 -0.5,1.5 -0.5,1.5 -21.5,64 q -21.5,64 -20.5,70.5 1,6.5 7.5,21.5 6.5,15 16.8,30.2 10.2,15.3 13,18.6 2.7,3.2 3.2,4.2 l 0.5,1 0.3,0.2 0.2,0.3 0.2,0.3 0.3,0.2 0.3,0.2 0.2,0.3 0.2,0.3 0.3,0.2 0.3,0.2 0.2,0.3 0.2,0.3 0.3,0.2 0.3,0.2 0.2,0.3 0.2,0.3 0.3,0.2 0.5,1 0.5,1 0.3,0.2 0.2,0.3 1,0.5 1,0.5 0.2,0.3 0.3,0.2 0.3,0.2 0.2,0.3 0.2,0.3 0.3,0.2 0.3,0.2 0.2,0.3 0.2,0.3 0.3,0.2 0.3,1 0.2,1 -1,-0.2 -1,-0.3 -0.2,-0.3 -0.3,-0.2 -0.3,-0.2 -0.2,-0.3 -0.2,-0.3 -0.3,-0.2 -0.3,-0.2 -0.2,-0.3 -0.2,-0.3 -0.3,-0.2 -0.3,-0.2 -0.2,-0.3 -0.2,-0.3 -0.3,-0.2 -0.3,-0.2 -0.2,-0.3 -0.2,-0.3 -0.3,-0.2 -0.3,-0.2 -0.2,-0.3 -0.2,-0.3 -0.3,-0.2 -0.3,-0.2 -0.2,-0.3 -0.2,-0.3 -0.3,-0.2 -0.3,-0.2 -0.2,-0.3 -0.2,-0.3 -0.3,-0.2 -0.3,-0.2 -0.2,-0.3 -0.2,-0.3 -0.3,-0.2 -0.3,-0.2 -0.2,-0.3 -1,-0.5 q -1,-0.5 -17,-16.5 -16,-16 -25.8,-29.7 l -9.7,-13.8 -0.3,-0.2 -0.2,-0.3 -0.2,-0.3 -0.3,-0.2 -0.5,-1 -0.5,-1 -0.5,-1 -0.5,-1 -0.3,-0.2 -0.2,-0.3 -0.2,-0.3 -0.3,-0.2 -0.5,1.5 -0.5,1.5 -0.5,2.5 -0.5,2.5 -1.5,10 q -1.5,10 -1,33 0.5,23 4.5,40 4,17 5.3,19.2 1.2,2.3 26.7,19.3 25.5,17 39,25 13.5,8 14.5,8.5 l 1,0.5 1,0.5 1,0.5 1,0.5 1,0.5 0.2,0.3 0.3,0.2 0.3,0.2 0.2,0.3 1,0.5 1,0.5 1.5,0.5 1.5,0.5 1,0.3 1,0.2 0,2 -1,-0.2 -1,-0.3 -1,-0.5 -1,-0.5 -1,-0.5 -1,-0.5 -1.5,-0.5 -1.5,-0.5 -1,-0.5 -1,-0.5 -1.5,-0.5 q -1.5,-0.5 -24,-10 -22.5,-9.5 -42.5,-20.5 l -20,-11 -0.2,-0.3 -0.3,-0.2 -0.3,-0.2 -0.2,-0.3 -1,-0.5 -1,-0.5 -0.2,-0.3 -0.3,-0.2 -0.5,1 -0.5,1 0,20 q 0,20 3,31 3,11 6.7,13.2 3.8,2.3 4.8,2.8 l 1,0.5 1,0.5 1,0.5 0,0.5 -3,0 q -3,0 -3,1.8 0,1.7 -1.8,3.4 -1.7,1.8 -2.2,2.8 -0.5,1 0.8,3 1.2,2 2.2,2.2 l 1,0.3 0.2,0.3 0.3,0.2 0.3,0.2 0.2,0.3 -0.2,0.3 -0.3,0.2 -0.3,0.2 -0.2,0.3 -1,0 -0.2,-0.3 -0.3,-0.2 -0.3,0.2 -0.2,0.3 -1,0 -0.2,-0.3 -0.3,-0.2 -0.3,-0.2 -0.2,-0.3 -0.2,-0.3 -0.3,-0.2 -0.3,1 -0.2,1 -1.5,-0.2 q -1.5,-0.29999 -8.5,-3.3 -7,-3.00001 -8.2,-5.3 -1.3,-2.2 -1.8,-8.2 -0.5,-6 -2,-20.5 -1.5,-14.5 -2.5,-26.5 -1,-12 -1.5,-24.5 -0.5,-12.5 2.5,-12.5 3,0 -0.7,-30 l -3.8,-30 0,-30 0.5,0 0.5,-8.5 q 0.5,-8.5 1.8,-17.3 1.2,-8.7 10.2,-9 9,-0.20001 21.8,-42.2 12.7,-42 20.7,-63.5 8,-21.5 15.5,-37 7.5,-15.5 11.5,-22.5 4,-7 5.3,-9.2 l 1.2,-2.3 0.2,-0.3 0.3,-0.2 0.3,-1 0.2,-1 1,0 q 1,0 2,-1.2 1,-1.3 1.5,0 0.5,1.2 1.5,1.2 1,0 1.2,1.5 z m 27,58.7 q 0.3,-0.20001 0.60001,0 0.2,0.29999 -0.3,0.29999 l -0.5,0 0.2,-0.3 z"
       id="svg_16" />
    <path
       style="fill-rule:evenodd;stroke:none;stroke-width:0.5"
       inkscape:connector-curvature="0"
       d="m 440,623.2 1,-0.2 0,1 q 0,1 -1,1.2 -1,0.29999 -1.2,0.59998 l -0.3,0.2 -0.3,0.2 -0.2,0.3 -0.2,0.3 -0.3,0.2 -0.3,0.2 -0.2,0.3 -0.2,0.3 -0.3,0.2 -0.3,0.2 -0.2,0.3 -0.2,0.3 -0.3,0.2 -0.3,0.2 -0.2,0.3 -0.2,0.3 -0.3,0.2 -0.3,0.2 -0.2,0.3 -0.2,0.3 -0.3,0.2 -0.3,0.2 -0.2,0.3 -9.8,11.3 q -9.7,11.2 -16.7,23.2 -7,12 -10.5,23.5 -3.5,11.5 -3.8,14.5 -0.20001,3 -11.7,5.8 -11.5,2.7 -19.3,8 -7.7,5.2 -10,8 -2.2,2.7 -2.4,3 l -0.3,0.2 -0.5,1 -0.5,1 -0.5,1 -0.5,1 -0.5,1 -0.5,1 -0.3,1 -0.2,1 4.5,0.2 q 4.5,0.29999 11.5,0.79999 l 7,0.5 -0.2,0.3 -0.3,0.2 -0.3,0.2 -0.2,0.3 -2,0.5 -2,0.5 -12,4.5 q -12,4.5 -17.5,9 -5.5,4.5 -9.3,12.8 -3.7,8.2 -5.7,18.7 -2,10.5 -2.5,14.5 l -0.5,4 -0.3,3 -0.2,3 1,-0.2 1,-0.3 0.2,-0.3 0.3,-0.2 0.3,-0.2 0.2,-0.3 1,-0.5 1,-0.5 1,-0.5 1,-0.5 14,-8.5 q 14,-8.5 20.5,-10.5 6.5,-2 43.5,-2 37,0 52.5,-4 15.5,-4 16.5,-4.5 1,-0.5 2.5,-1 l 1.5,-0.5 1,-0.5 1,-0.5 1,-0.5 1,-0.5 1,-0.5 1,-0.5 2,0 -0.2,0.3 -0.3,0.2 -0.3,0.2 -0.2,0.3 -0.2,0.3 -0.3,0.2 -0.3,0.2 -0.2,0.3 -0.2,0.3 -0.3,0.2 -0.3,0.2 -0.2,0.3 -0.2,0.3 -0.3,0.2 -0.3,0.2 -0.2,0.3 -0.2,0.3 -0.3,0.2 -0.3,0.2 -0.2,0.3 -0.2,0.3 -0.3,0.2 -2.5,3 q -2.5,3 -3,4 l -0.5,1 -0.3,0.2 -0.2,0.3 -0.2,0.3 -0.3,0.2 -0.3,0.2 -0.2,0.3 -0.2,0.3 -0.3,0.2 -0.3,0.2 -0.2,0.3 -0.2,0.3 -0.3,0.2 -0.3,0.2 -0.2,0.3 -0.2,0.3 -0.3,0.2 -0.3,0.2 -0.2,0.3 -0.2,0.3 -0.3,0.2 0,2 0.3,-0.2 0.2,-0.3 1,-0.5 1,-0.5 1,-0.5 1,-0.5 1,-0.5 1,-0.5 19.5,-7.5 q 19.5,-7.5 33,-10 13.5,-2.5 35,-2 21.5,0.5 30.5,1 l 9,0.5 -1,0.5 -1,0.5 -1,0.5 -1,0.5 -1,0.5 -1,0.5 -1,0.5 -1,0.5 -16.5,10 q -16.5,10 -25.7,19.3 -9.3,9.2 -9.8,10.2 l -0.5,1 -0.3,0.2 -0.2,0.3 -0.2,0.3 -0.3,0.2 -0.5,1 -0.5,1 -0.3,0.2 -0.2,0.3 0.2,0.3 0.3,0.2 0.3,0.2 0.2,0.3 1,0.5 1,0.5 9,3.5 q 9,3.5 14.5,4.5 5.5,1 22,1 l 16.5,0 -0.2,-0.3 -0.3,-0.2 -0.3,-0.2 -0.2,-0.3 -1.5,-0.5 -1.5,-0.5 -1,-0.5 -1,-0.5 -6,-3.5 q -6,-3.5 -7.8,-5.8 -1.7,-2.2 -1.2,-6.7 0.5,-4.5 5.2,-9.7 4.8,-5.3 14.8,-9.8 10,-4.5 21,-6.5 11,-2 25.5,-1.5 14.5,0.5 17.3,3.2 2.7,2.8 2.7,10.3 0,7.5 -1.5,10.5 -1.5,3 -2,4 l -0.5,1 -0.3,0.2 -0.2,0.3 -0.2,0.3 -0.3,0.2 -0.5,1 -0.5,1 -0.5,1 -0.5,1 -0.3,0.2 -0.2,0.3 -0.2,0.3 -0.3,0.2 -0.3,0.2 -0.2,0.3 2,0 0.2,-0.3 0.3,-0.2 0.3,-0.2 0.2,-0.3 0.2,-0.3 0.3,-0.2 0.3,-0.2 0.2,-0.3 0.2,-0.3 0.3,-0.2 0.3,-0.2 0.2,-0.3 0.2,-0.3 0.3,-0.2 0.3,-0.2 0.2,-0.3 0.2,-0.3 0.3,-0.2 0.3,-0.2 0.2,-0.3 0.2,-0.3 0.3,-0.2 0.3,-0.2 q 0.20001,-0.29999 2.7,-2.8 2.49999,-2.50001 10.7,-12.2 l 8.3,-9.8 0.5,-1 0.5,-1 0.3,-1 0.2,-1 0.5,0 0.5,1 0.5,1 0.3,0.2 0.2,0.3 1,0 0.2,-0.3 0.3,-0.2 0.3,0.2 0.2,0.3 1,0 0.2,-0.3 0.3,-0.2 0.5,0 -0.2,1 -0.3,1 -0.5,1 -0.5,1 -1.7,2.8 q -1.8,2.7 -2,3 l -0.3,0.2 -0.5,1 -0.5,1 -0.3,0.2 -0.2,0.3 -0.2,0.3 -0.3,0.2 -0.3,0.2 -0.2,0.3 -0.2,0.3 -0.3,0.2 -0.3,0.2 -0.2,0.3 -0.2,0.3 -0.3,0.2 -0.3,0.2 -0.2,0.3 -0.2,0.3 -0.3,0.2 -0.3,0.2 -0.2,0.3 2,0 0.2,-0.3 0.3,-0.2 0.5,0 1.2,0.5 q 1.3,0.5 1.6,-0.5 0.20001,-1 1.2,-1.2 l 1,-0.3 0.2,-0.3 0.3,-0.2 0.3,0.2 0.2,0.3 0.2,0.3 0.3,0.2 0.3,1 0.2,1 -1.5,0.2 -1.5,0.3 1,0.5 1,0.5 -1,0.3 -1,0.2 0.2,1 0.3,1 0.3,0.2 0.2,0.3 -1,0.3 q -1,0.20001 -1,1.2 0,1 -1,0.79999 -1,-0.29999 -1.8,1 -0.70001,1.2 -2.2,2.2 -1.49999,1 -4.2,1.8 l -2.8,0.7 -0.2,0.3 -0.3,0.2 -0.3,0.2 -0.2,0.3 -0.2,0.3 -0.3,0.2 -0.3,0.2 -0.2,0.3 1,0.5 1,0.5 0.2,0.3 0.3,0.2 0.5,1 0.5,1 0.3,0.5 0.2,0.5 -1,0.2 q -1,0.29999 -2.5,1.3 -1.5,1.00001 -6,2.7 -4.5,1.8 -4.7,2.8 -0.29999,1 -12,8.2 l -11.8,7.3 -1,0 -0.2,-0.3 -0.3,-0.2 -0.3,0.2 -0.2,0.3 -0.2,0.3 -0.3,0.2 -0.3,0.2 -0.2,0.3 -1,0.5 -1,0.5 -0.2,0.3 -0.3,0.2 -0.3,1 -0.2,1 -1.5,-0.2 -1.5,-0.3 0.2,-0.3 0.3,-0.2 0.3,-0.2 0.2,-0.3 0.2,-0.3 0.3,-0.2 0.3,-0.2 0.2,-0.3 0.2,-0.3 0.3,-0.2 0.3,-0.2 0.2,-0.3 -0.2,-0.3 -0.3,-0.2 0,-2 0.5,-2.5 q 0.5,-2.5 2.5,-9 2,-6.5 3.7,-13 1.8,-6.5 2.8,-6.7 1,-0.29999 1,-3 0,-2.8 1,-2.8 l 1,0 -0.2,-1 -0.3,-1 -0.3,-0.2 -0.2,-0.3 0.2,-0.3 0.3,-0.2 0.3,-0.2 0.2,-0.3 -1,-0.5 -1,-0.5 -4,0 -1.5,0.5 q -1.5,0.5 -3,0.5 -1.5,0 -2.3,0.70001 -0.70001,0.79999 -4.4,1 -3.8,0.29999 -11.8,2.3 l -8,2 -2.5,0.3 -2.5,0.2 0.2,1 0.3,1 0.3,0.2 0.2,0.3 0.2,0.3 0.3,0.2 0.3,0.2 0.2,0.3 0.2,0.3 0.3,0.2 0.3,0.2 0.2,0.3 0.2,0.3 0.3,0.2 0.3,0.2 0.2,0.3 1,0.3 q 1,0.20001 1.5,1.4 0.5,1.3 2.5,3.3 2,2 5.2,4.3 3.3,2.2 3.6,3.2 0.20001,1 1.2,1 1,0 1.2,1 0.29999,1 0.59998,1.2 l 0.2,0.3 0.2,0.3 0.3,0.2 0.3,0.2 0.2,0.3 0.2,0.3 0.3,0.2 0.3,0.2 0.2,0.3 0.2,0.3 0.3,0.2 0.3,0.2 0.2,0.3 0.2,0.3 0.3,0.2 0.3,0.2 0.2,0.3 -1,0.5 -1,0.5 -0.2,0.3 -0.3,0.2 -0.3,0.2 -0.2,0.3 -2,0 -0.2,-0.3 -0.3,-0.2 -0.3,0.2 q -0.20001,0.29999 -12.7,3.8 -12.49999,3.50001 -29,3.5 -16.50001,-10e-6 -24,-1 -7.49999,-0.99999 -30.5,-9.3 l -23,-8.2 0.2,-1 0.3,-1 0.3,0.2 0.2,0.3 0.2,0.3 0.3,0.2 0,-3 -0.3,-0.2 -0.2,-0.3 0.2,-0.3 0.3,-0.2 0.3,-0.2 q 0.20001,-0.29999 8.2,-9.3 l 8,-9 0.2,-0.3 0.3,-0.2 0.3,-0.2 0.2,-0.3 0.2,-0.3 0.3,-0.2 0.3,-0.2 0.2,-0.3 0.2,-0.3 0.3,-0.2 0.3,-0.2 0.2,-0.3 0.2,-0.3 0.3,-0.2 0.3,-0.2 0.2,-0.3 0.2,-0.3 0.3,-0.2 0.3,-0.2 0.2,-0.3 0.2,-0.3 0.3,-0.2 0.3,-0.2 0.2,-0.3 -3,0 -1.5,0.5 -1.5,0.5 -20.5,5 q -20.5,5 -29.3,7.3 -8.7,2.2 -25.4,6.4 -16.8,4.3 -19.8,5.3 -3,1 -3.5,1.7 -0.5,0.79999 -3.5,0.79999 -3,0 -3,1 0,1 -1.5,0.79999 -1.5,-0.29999 -6,0.40002 -4.5,0.79999 -4.5,1.8 0,1.00001 -3.2,1 -3.3,0 -13.6,3.8 -10.2,3.7 -17.2,8.2 -7,4.5 -8.8,10.8 -1.7,6.2 -2.2,10.2 -0.5,4 0,7.5 0.5,3.5 1.5,7.5 1,4 1.5,5 l 0.5,1 0.3,1 0.2,1 -1.5,0.2 -1.5,0.3 -2,0 -0.2,-0.3 q -0.29999,-0.20001 -3.6,0.59998 -3.2,0.70001 -11.4,-1 -8.3,-1.8 -13,-4.3 -4.8,-2.5 -4.8,-3.5 0,-1 -1,-1 -1,0 -1,-1 0,-1 -2,-1.2 -2,-0.29999 -8.2,-7 l -6.3,-6.8 -0.3,-0.2 -0.2,-0.3 -0.2,-0.3 -0.3,-0.2 -0.5,-1 -0.5,-1 -0.3,-0.2 -0.2,-0.3 -0.2,-0.3 -0.3,-0.2 -0.3,0.2 -0.2,0.3 -0.2,0.3 -0.3,0.2 -0.3,0.2 -0.2,0.3 0.2,0.3 0.3,0.2 -1,16 q -1,16 -0.5,17 0.5,1 0.79999,2.5 l 0.2,1.5 -0.5,0 -0.5,-1 q -0.5,-1 -1,2.5 l -0.5,3.5 -0.3,-0.2 -0.2,-0.3 -0.2,-0.3 -0.3,-0.2 0,-2 q 0,-2 0,-3 l 0,-1 -0.3,-0.2 -0.2,-0.3 -0.2,-0.3 -0.3,-0.2 -1,9.5 q -1,9.5 -0.70001,10.5 0.20001,1 -0.79999,1 -1,0 -1,-1.5 0,-1.5 -0.79999,-1 -0.70001,0.5 -0.70001,3 l 0,2.5 -0.3,0.2 -0.2,0.3 -0.2,0.3 -0.3,0.2 -0.5,-1 -0.5,-1 -0.5,1 -0.5,1 -0.5,-1 -0.5,-1 -0.3,-0.2 -0.2,-0.3 -0.2,-0.3 -0.3,-0.2 -0.5,0 -0.2,-3 q -0.29999,-3 -0.79999,-20 -0.5,-17 1.5,-38.5 2,-21.5 7,-44 5,-22.5 14,-39.5 9,-17 21,-32 12,-15 27.3,-28.8 15.2,-13.7 21.4,-23.4 6.3,-9.8 16,-22 9.8,-12.3 22.3,-22.8 l 12.5,-10.5 0.2,-0.3 0.3,-0.2 0.3,-0.2 0.2,-0.3 1,-0.5 1,-0.5 0.2,-0.3 0.3,-0.2 0.3,-0.2 0.2,-0.3 1,-0.5 1,-0.5 0.2,-0.3 0.3,-0.2 0.3,-0.2 0.2,-0.3 0.2,-0.3 0.3,-0.2 0.3,-0.2 q 0.20001,-0.29999 1.2,-0.59998 z m -97.5,231.8 0,9 0.5,2 0.5,2 0.3,1 0.2,1 -2,0 -0.2,-1 -0.3,-1 -0.3,-0.2 -0.2,-0.3 -0.2,-0.3 -0.3,-0.2 -0.5,-1 -0.5,-1 -0.3,-0.2 -0.2,-0.3 -0.2,-0.3 -0.3,-0.2 -0.3,-0.2 -0.2,-0.3 -14.2,-18.7 q -14.3,-18.8 -13,-21 1.2,-2.3 8.7,-8.8 7.5,-6.5 16.5,-10.5 9,-4 24,-6.5 15,-2.5 50.5,-3.5 35.5,-1 38.5,-1 3,0 -4,4 -7,4 -41,13 -34,9 -42,13.5 -8,4.5 -11.8,8.2 -3.7,3.8 -5.7,8.8 -2,5 -2,14 z"
       id="svg_17" />
    <g
       style="fill-rule:evenodd;stroke:none;stroke-width:0.5"
       id="g4163">
      <path
         inkscape:connector-curvature="0"
         d="m 466,574 2,0.5 1,0.5 1,0.5 2,0.5 2,0.5 1,0.5 1,0.5 -2,0.5 -2,0.5 -1.5,0.5 -1.5,0.5 -10.5,0.5 q -10.5,0.5 -26.5,-1 -16,-1.5 -39.5,11 l -23.5,12.5 -1,0.5 -1,0.5 -1,0.5 -1,0.5 -1,0.5 -1,0.5 -3,0 1,-0.5 1,-0.5 0.2,-0.3 0.3,-0.2 0.3,-0.2 0.2,-0.3 0.2,-0.3 0.3,-0.2 0.3,-0.2 0.2,-0.3 1,-0.5 1,-0.5 0.2,-0.3 0.3,-0.2 0.3,-0.2 0.2,-0.3 0.2,-0.3 0.3,-0.2 3.3,-2 q 3.2,-2 6.7,-5.8 3.5,-3.7 16.5,-14.2 13,-10.5 16.8,-15.8 3.7,-5.2 4.7,-10.2 1,-5 -2.5,-21.5 -3.5,-16.5 -8,-32.5 -4.5,-16 -9,-46 -4.5,-30 -4.2,-31.8 0.20001,-1.7 12,43 11.7,44.8 18.7,62.3 7,17.5 11.3,24.7 4.2,7.3 8.2,11.3 4,4 13,8 9,4 11,4.5 z"
         id="svg_18"
         style="stroke:none" />
      <path
         style="fill:#ffffff;stroke:none"
         inkscape:connector-curvature="0"
         d="m 681,764 -1,-0.5 4,0 11,2 q 11,2 12,2.5 1,0.5 2.5,1 l 1.5,0.5 0.2,0.3 0.3,0.2 0.3,0.2 0.2,0.3 1,0.5 1,0.5 1,0.3 1,0.2 -0.2,1 -0.3,1 -0.3,0.2 -0.2,0.3 -0.2,0.3 -0.3,0.2 -0.5,1 -0.5,1 -7.3,7.8 q -7.2,7.7 -10.7,10.7 -3.5,3 -4.5,3.5 l -1,0.5 -0.2,0.3 -0.3,0.2 -0.3,0.2 -0.2,0.3 -0.2,0.3 -0.3,0.2 -0.3,0.2 -0.2,0.3 -1,0.5 -1,0.5 0,0.5 -0.5,0 -0.3,0.2 -0.2,0.3 -2,0 0.2,-0.3 0.3,-0.2 0.3,-0.2 0.2,-0.3 0.2,-0.3 0.3,-0.2 0.3,-0.2 0.2,-0.3 0.2,-0.3 0.3,-0.2 0.3,-0.2 0.2,-0.3 0.2,-0.3 0.3,-0.2 0.3,-0.2 0.2,-0.3 0.2,-0.3 0.3,-0.2 0.5,-1 0.5,-1 0.3,-0.2 q 0.20001,-0.29999 2,-3 l 1.7,-2.8 0.5,-1 0.5,-1 0.3,-1 0.2,-1 0.2,-0.5 0.3,-0.5 0.5,-2.5 0.5,-2.5 0,-2 -0.5,-2 q -0.5,-2 -1.8,-4.5 -1.2,-2.5 -4.2,-4.3 l -3,-1.7 -1,-0.5 -1,-0.5 -1,-0.5 -1,-0.5 -1,-0.5 z"
         id="svg_19" />
    </g>
    <path
       style="fill-rule:evenodd;stroke:none;stroke-width:0.5"
       inkscape:connector-curvature="0"
       d="m 298.2,901.2 1.3,-9.2 0.3,0.2 0.2,0.3 0.2,0.3 0.3,0.2 0,1 q 0,1 0,3 l 0,2 0.3,0.2 0.2,0.3 0.2,0.3 0.3,0.2 0.5,-3.5 q 0.5,-3.5 1,-2.5 l 0.5,1 0.5,0 0.8,10 q 0.70001,10 1.2,12.5 0.5,2.5 0.79999,8.3 0.20001,5.7 1,6.4 0.70001,0.79999 0.40002,2.8 Q 308,937 309,937 q 1,0 1.5,4.2 0.5,4.3 -0.5,4.8 -1,0.5 -0.20001,1.2 0.70001,0.79999 1.4,4 0.79999,3.3 1.6,4.6 0.70001,1.2 0.40002,2.7 Q 313,960 314,960 q 1,0 3,9.2 2,9.3 2.8,11.6 0.70001,2.2 6.7,18.7 5.99999,16.5 13.3,32.3 7.2,15.7 17.2,34.2 10,18.5 22,37.5 12,19 12.2,19.3 l 0.3,0.2 0.3,0.2 0.2,0.3 0.2,0.3 0.3,0.2 0.3,0.2 0.2,0.3 0.2,0.3 0.3,0.2 0.5,1 0.5,1 0.3,0.2 0.2,0.3 0.2,0.3 0.3,0.2 0.3,1 0.2,1 -0.5,0 -0.3,0.2 -0.2,0.3 -1,0 -1,-0.5 -1,-0.5 -1,-0.5 -1,-0.5 -1,-0.5 -1,-0.5 -2,-0.5 q -2,-0.5 -3.5,-1 -1.5,-0.5 -17.5,-7 -16,-6.5 -32.5,-16.5 -16.5,-10 -20.5,-12.3 -4,-2.2 -4.2,-3.2 -0.29999,-1 -6,-4.5 -5.8,-3.5 -5.8,-4.5 0,-1 -1,-1.2 -1,-0.3 -1.5,-1.6001 -0.5,-1.2 -2,-1.3999 -1.5,-0.3 -2.5,-2 -1,-1.8 -3.5,-2.3 -2.5,-0.5 -2.7,-1.5 -0.29999,-1 -14.3,-15 -14.00001,-14 -14.5,-15 -0.49999,-1 -1.8,-1.8 -1.2,-0.6999 -2.4,-2.3999 -1.3,-1.8 -3,-4 -1.8,-2.3 -2.6,-3 -0.7,-0.8 -3,-3.8 -2.2,-3 -3.2,-3 -1,0 -1.5,-1.2 l -0.5,-1.3 -0.2,-0.3 -0.3,-0.2 -0.3,-0.2 -0.2,-0.3 -0.2,-0.3 -0.3,-0.2 -0.5,-1 -0.5,-1 -0.5,1.5 -0.5,1.5 -1,2.5 q -1,2.5 -1.5,3.5 l -0.5,1 -0.3,0.2 -0.2,0.3 -1,0 -0.2,-0.3 -0.3,-0.2 -0.3,-0.2 -0.2,-0.3 -1,-0.5 q -1,-0.5 -3,-1.2 -2,-0.8 -2.2,-1.8 -0.3,-1 -3,-2.5 -2.8,-1.5 -2.8,-3 0,-1.5 -1.5,-1.5 -1.5,0 -1.7,-1 -0.3,-1 -2.6,-2.2 -2.2,-1.3 -2.7,-2.6 -0.5,-1.2 -2.5,-2.4 -2,-1.3 -4.2,-3.6 -2.3,-2.2 -3.6,-2.7 -1.2,-0.5 -2,-2 -0.7,-1.5 -2.4,-2 -1.8,-0.5 -1.8,-1.5 0,-1 -1,-1.2 -1,-0.29999 -1.8,-2 -0.7,-1.8 -2,-2.6 -1.2,-0.70001 -1.7,-2 -0.5,-1.2 -2,-1.2 -1.5,0 -2.3,-2 -0.7,-2 -3,-3.8 -2.2,-1.7 -4.4,-5 -2.3,-3.2 -3,-4 -0.8,-0.70001 -2,-3 -1.3,-2.2 -2,-2 -0.8,0.29999 -1.8,-2.4 -1,-2.8 -2.5,-3 -1.5,-0.29999 -2.5,-2 -1,-1.8 -2,-1.8 -1,0 -1.2,-1 -0.3,-1 -3.6,-6.2 -3.2,-5.3 -3.2,-7.6 0,-2.2 -1.5,-2.4 -1.5,-0.29999 -2.3,-2.6 l -0.7,-2.2 0.3,-0.2 0.2,-0.3 -1,-0.5 -1,-0.5 -1,-0.3 -1,-0.2 0,-2.5 4,0 0.2,0.3 0.3,0.2 0.3,0.2 0.2,0.3 0.2,0.3 0.3,0.2 0.3,0.2 0.2,0.3 0.2,0.3 0.3,0.2 2.3,1.8 q 2.2,1.7 3.7,2 1.5,0.20001 2,1.4 0.5,1.3 0.7,1.6 l 0.3,0.2 0.3,0.2 0.2,0.3 0.2,0.3 0.3,0.2 0.3,0.2 0.2,0.3 0.2,0.3 0.3,0.2 0,-2 -0.3,-0.2 -0.2,-0.3 4,0 -0.2,-0.3 -0.3,-0.2 -0.3,-1.5 q -0.2,-1.5 0.8,-1.5 1,0 0.2,-2.5 l -0.7,-2.5 -0.3,-1.5 -0.2,-1.5 0.5,0 0.5,1 0.5,1 0.3,0.2 0.2,0.3 0.2,0.3 0.3,0.2 0.5,1 0.5,1 0.3,0.2 0.2,0.3 0.2,0.3 0.3,0.2 14.7,17.8 q 14.8,17.7 22.8,25.7 8,8 9,8.5 l 1,0.5 0.2,0.3 0.3,0.2 0.3,0.2 0.2,0.3 0.2,0.3 0.3,0.2 0.3,0.2 0.2,0.3 0.2,0.3 0.3,0.2 0.3,0.2 0.2,0.3 0.2,0.3 0.3,0.2 0.3,0.2 0.2,0.3 0.2,0.3 0.3,0.2 0.3,0.2 0.2,0.3 0.2,0.3 0.3,0.2 0,-2 -0.5,-1.5 -0.5,-1.5 -0.5,-1 -0.5,-1 -0.5,-1.5 q -0.5,-1.5 -3.5,-13.5 -3,-12 -3,-36 l 0,-24 0.5,2.5 0.5,2.5 5,18 q 5,18 13,35 8,17 20,34 12,17 29.7,34.8 17.8,17.7 40.3,34.2 22.5,16.5 26.7,19.2 4.3,2.8 4.6,3 l 0.2,0.3 1,0.5 1,0.5 0.2,0.3 0.3,0.2 0.3,0.2 0.2,0.3 1,0.5 1,0.5 0.2,0.3 0.3,0.2 0.3,0.2 0.2,0.3 1,0 0.2,-0.3 0.3,-0.2 0.3,-0.2 0.2,-0.3 -0.2,-0.3 -0.3,-0.2 -0.3,-0.2 -0.2,-0.3 -0.2,-0.3 -0.3,-0.2 -0.5,-1 -0.5,-1 -0.5,-1 -0.5,-1 -0.5,-1 q -0.5,-1 -6.8,-11.8 -6.2,-10.7 -19,-37 -12.7,-26.2 -21.2,-51.7 -8.5,-25.5 -12.8,-49.5 l -4.2,-24 0.5,0 0.3,0.2 0.2,0.3 0.2,0.3 0.3,0.2 0.5,1 0.5,1 0.3,-1.5 q 0.20001,-1.5 1.2,-1.3 1,0.29999 1.2,-1.4 0.29999,-1.8 1.6,-2 1.2,-0.29999 2.4,-9.6 z m -5,15 q 0.29999,-0.20001 0.59998,0 l 0.2,0.3 -0.5,0 q -0.5,0 -0.29999,-0.29999 z m -134,27.3 q 0.3,-1.5 1,0 0.8,1.5 -0.2,1.5 -1,0 -0.8,-1.5 z"
       id="svg_20" />
    <path
       style="fill-rule:evenodd;stroke:none;stroke-width:0.5"
       inkscape:connector-curvature="0"
       d="m 558,635.5 0.5,-1.5 0.5,1 0.5,1 0.5,1 0.5,1 0.5,1 0.5,1 5.3,9.2 q 5.2,9.3 22.2,6.3 17,-3 18,-3.3 l 1,-0.2 0,0.5 2,0.3 2,0.2 0,4 -0.20001,0 q -0.29999,0 -20.6,4.8 -20.2,4.7 -24.4,-2 l -4.3,-6.8 -0.5,-1 -0.5,-1 -0.3,-0.2 -0.2,-0.3 -0.2,-0.3 -0.3,-0.2 -0.5,1 -0.5,1 -0.5,1.5 -0.5,1.5 -6.3,9.8 q -6.2,9.7 -13.7,15.7 -7.5,6 -10,6.7 -2.5,0.79999 -8.5,12.6 -6,11.7 -13,21.2 -7,9.5 -7.2,9.8 l -0.3,0.2 -0.3,0.2 -0.2,0.3 -0.2,0.3 -0.3,0.2 -0.3,0.2 -0.2,0.3 -0.2,0.3 -0.3,0.2 -0.3,0.2 -0.2,0.3 -0.2,0.3 -0.3,0.2 -0.3,0.2 -0.2,0.3 0.5,0.5 q 0.5,0.5 1,0.5 l 0.5,0 0.2,-0.3 0.3,-0.2 0.3,-0.2 0.2,-0.3 1,-0.5 1,-0.5 0.2,-0.3 0.3,-0.2 0.3,-0.2 q 0.20001,-0.29999 0.40002,-0.59998 l 0.3,-0.2 0.3,-0.2 0.2,-0.3 21.5,-13 q 21.5,-13 47,-25 25.5,-12 54.5,-22.5 29,-10.5 40.5,-11.5 11.5,-1 29.5,-0.5 18,0.5 25,2 7,1.5 9,2 l 2,0.5 1,0.5 1,0.5 0.2,0.3 0.3,0.2 0,3 -2,4.5 q -2,4.5 -2.5,5.5 l -0.5,1 -0.3,0.2 -0.2,0.3 -0.2,0.3 -0.3,0.2 -0.3,0.2 -0.2,0.3 -0.2,0.3 -0.3,0.2 -0.3,0.2 -0.2,0.3 -0.2,0.3 -0.3,0.2 -0.3,0.2 -0.2,0.3 4,0 1.5,-0.5 1.5,-0.5 1,-0.5 1,-0.5 3,-2 q 3,-2 3.5,-2.3 l 0.5,-0.2 0,0.5 2.2,0.3 q 2.3,0.20001 3.6,0.70001 1.2,0.5 0.20001,2.3 -1,1.7 0.79999,1.4 1.7,-0.20001 2,1.3 0.20001,1.5 1.7,1.3 l 1.5,-0.3 0.2,-0.3 0.3,-0.2 0.3,0.2 0.2,0.3 0.2,0.3 0.3,0.2 0.3,-0.2 0.2,-0.3 1,-0.3 1,-0.2 0,2 -1.5,0.2 -1.5,0.3 -0.2,0.3 -0.3,0.2 -0.3,0.2 -0.2,0.3 -0.2,0.3 -0.3,0.2 -0.3,0.2 -0.2,0.3 -1,0.5 q -1,0.5 -5.5,2.2 -4.5,1.8 -4.7,2.8 -0.29999,1 -10,5.2 -9.8,4.3 -14.8,5.8 -5,1.5 -6,2 l -1,0.5 -2,0 -0.2,-0.3 -0.3,-0.2 -0.3,0.2 -0.2,0.3 -0.2,0.3 -0.3,0.2 -0.3,-0.2 -0.2,-0.3 -1,-0.5 -1,-0.5 -0.2,-0.3 -0.3,-0.2 0,-5 q 0,-5 3,-11 l 3,-6 0.5,-1 0.5,-1 0.3,-0.2 0.2,-0.3 -1.5,-0.5 -1.5,-0.5 -2.5,-0.5 q -2.5,-0.5 -5.5,-0.79999 -3,-0.20001 -3.2,-1.2 -0.29999,-1 -16,-0.20001 -15.8,0.70001 -29.8,3.7 -14,2.99999 -22.5,6.5 -8.5,3.50001 -28.5,13 -20,9.49999 -21,10.8 -1,1.2 -7,3.4 -6,2.3 -8,3.3 l -2,1 -0.2,0.3 -0.3,0.2 -0.3,0.2 -0.2,0.3 -1,0.5 -1,0.5 -1,0.5 -1,0.5 0.2,0.3 0.3,0.2 0.3,0.2 0.2,0.3 1.5,0.5 1.5,0.5 1.5,0.5 1.5,0.5 11,3.5 q 11,3.5 13,3.8 2,0.20001 2.5,1 0.5,0.70001 10.3,3 9.7,2.2 13,2.7 3.2,0.5 3.2,1.5 0,1 2.5,0.79999 2.5,-0.29999 15,2.7 12.5,2.99999 17.5,3.3 5,0.20001 5,1.2 0,1 2.5,0.79999 2.5,-0.29999 5.5,-0.29999 3,0 24,0.70001 21,0.79999 21.5,1.6 0.5,0.70001 7.5,2.7 7,1.99999 12.8,5.7 5.7,3.8 8.7,7.8 3,4 2.7,5.2 -0.20001,1.3 -1.2,1.6 -1,0.20001 -2.8,3.7 -1.7,3.5 -3,5.5 -1.2,2 -2.4,2.5 -1.3,0.5 -1.6,1.5 -0.20001,1 -1.2,1 -1,0 -2.5,2.8 -1.5,2.7 -4,4.4 -2.5,1.8 -4.5,4.8 -2,3 -15,12.2 -13,9.3 -14.5,9.6 -1.5,0.20001 -1.5,1.2 0,1 -2,1.2 l -2,0.3 -1,0 -1,-0.5 -1,-0.5 -1,-0.3 -1,-0.2 -0.2,-0.5 -0.3,-0.5 -0.5,-1 -0.5,-1 -0.3,-0.2 -0.2,-0.3 -1,-0.5 -1,-0.5 0.2,-0.3 0.3,-0.2 0.3,-0.2 0.2,-0.3 0.2,-0.3 0.3,-0.2 0.3,-0.2 0.2,-0.3 1.5,-0.3 q 1.5,-0.20001 1.5,-1.2 0,-1 2.8,-1.5 2.7,-0.5 3.4,-1.7 0.79999,-1.3 1.8,-1 1,0.20001 1,-0.79999 0,-1 1,-1.2 l 1,-0.3 -0.2,-0.3 -0.3,-0.2 -0.3,-0.2 q -0.20001,-0.29999 -1.2,-0.59998 -1,-0.20001 -1,-2.2 0,-1.99999 -1,-2 l -1,0 0,-0.5 1,-0.5 1,-0.5 0.2,-0.3 0.3,-0.2 0.3,-0.2 0.2,-0.3 0.2,-0.3 0.3,-0.2 0.3,-0.2 0.2,-0.3 1,-0.5 q 1,-0.5 4.5,-3.5 3.5,-3 10.7,-10.7 l 7.3,-7.8 0.5,-1 0.5,-1 0.3,-0.2 0.2,-0.3 0.2,-0.3 0.3,-0.2 0.3,-1 0.2,-1 -1,-0.2 -1,-0.3 -1,-0.5 -1,-0.5 -0.2,-0.3 -0.3,-0.2 -0.3,-0.2 -0.2,-0.3 -1.5,-0.5 q -1.5,-0.5 -2.5,-1 -1,-0.5 -12,-2.5 l -11,-2 -4,0 1,0.5 1,0.5 1,0.5 1,0.5 1,0.5 1,0.5 3,1.7 q 3,1.8 4.2,4.3 1.3,2.5 1.8,4.5 l 0.5,2 0,2 -0.5,2.5 -0.5,2.5 -0.3,0.5 -0.2,0.5 -0.5,0 -0.3,0.2 -0.2,0.3 -1,0 -0.2,-0.3 -0.3,-0.2 -0.3,0.2 -0.2,0.3 -1,0 -0.2,-0.3 -0.3,-0.2 -0.5,-1 -0.5,-1 -0.5,0 0.2,-0.5 0.3,-0.5 0,-8 -0.3,-0.2 q -0.20001,-0.29999 -0.70001,-1.6 -0.5,-1.2 -69.5,-18.4 -69,-17.3 -81.5,-19.8 -12.5,-2.5 -42.5,6.5 l -30,9 -1.5,0.5 -1.5,0.5 -1.5,0.5 -1.5,0.5 -3,0 0.2,-0.3 0.3,-0.2 0.3,-0.2 0.2,-0.3 1,-0.5 1,-0.5 1,-0.5 1,-0.5 1,-0.5 1,-0.5 0.2,-0.3 0.3,-0.2 0.3,-0.2 q 0.20001,-0.29999 9.7,-6.8 9.49999,-6.50001 19.3,-16.2 9.7,-9.8 15.2,-18.8 5.5,-9 6.8,-17 1.2,-8 6.7,-8.8 5.5,-0.70001 10.7,-3.4 5.3,-2.8 10.6,-8.6 5.2,-5.7 10,-17 l 4.7,-11.2 0.5,-2 0.5,-2 0.5,-1.5 z m 186.2,44.3 q -0.20001,-0.29999 0,-0.59998 0.29999,-0.20001 0.29999,0.29999 0,0.5 -0.29999,0.29999 z m 2,0 q -0.20001,-0.29999 0,-0.59998 0.29999,-0.20001 0.29999,0.29999 0,0.5 -0.29999,0.29999 z m -252,57.4 q 0.29999,-0.20001 0.59998,0 0.20001,0.29999 -0.29999,0.29999 -0.5,0 -0.29999,-0.29999 z m 197,64 0.3,-0.2 0.3,0.2 0.2,0.3 0.2,0.3 0.3,0.2 0.3,1 0.2,1 -1,-0.2 q -1,-0.29999 -1,-1.3 l 0,-1 0.2,-0.3 z m 0,4 q 0.29999,-0.20001 0.59998,0 l 0.2,0.3 -0.5,0 q -0.5,0 -0.29999,-0.29999 z m -9,10 q 0.29999,-0.20001 0.59998,0 0.20001,0.29999 -0.29999,0.29999 -0.5,0 -0.29999,-0.29999 z"
       id="svg_21" />
    <path
       style="fill-rule:evenodd;stroke:none;stroke-width:0.5"
       inkscape:connector-curvature="0"
       d="m 758.2,683 -0.20001,0 -0.5,0.2 q -0.5,0.29999 -0.5,0.59998 l 0,0.20001 -1,-0.2 -1,-0.3 -0.2,-0.3 -0.3,-0.2 -0.3,0.2 -0.2,0.3 -1.5,0.3 q -1.5,0.20001 -1.7,-1.3 -0.29999,-1.5 -3,-1.3 l -2.8,0.3 -0.2,-0.3 -0.3,-0.2 -0.3,-1 -0.2,-1 1.5,0 q 1.5,0 1.3,-1 -0.29999,-1 -2.6,-1.2 l -2.2,-0.3 0,-1 0.2,-0.3 0.3,-0.2 0.3,-0.2 Q 743,674.5 743.99999,674 q 1,-0.5 8.8,-9.8 7.7,-9.2 2.7,-19.2 -5,-10 -11.7,-16.8 -6.8,-6.7 -18.3,-5 -11.5,1.8 -12.7,4.3 -1.3,2.5 -4.6,5.7 -3.2,3.3 -8.7,3.3 -5.5,0 -10.7,-4.3 -5.3,-4.2 -5.8,-9.7 -0.5,-5.5 -3.8,-6.3 -3.2,-0.70001 -26.7,-1.2 -23.5,-0.5 -29,1 l -5.5,1.5 -1,0.5 -1,0.5 -1,0.3 -1,0.2 0.2,1 0.3,1 2.7,6.2 q 2.8,6.3 10,12.6 7.3,6.2 7.6,6.4 l 0.2,0.3 1,0.5 1,0.5 0.2,0.3 0.3,0.2 0.3,0.2 0.2,0.3 1,0.3 1,0.2 0,2 -2,0.2 -2,0.3 -2,0.5 q -2,0.5 -10,2.5 l -8,2 -2,0.3 -2,0.2 0,-4 -2,-0.2 -2,-0.3 0,-0.5 1.5,-0.2 1.5,-0.3 2.5,-0.5 q 2.5,-0.5 5.5,-1 l 3,-0.5 2.5,-0.5 2.5,-0.5 -0.2,-0.3 -0.3,-0.2 -0.3,-0.2 -0.2,-0.3 -1,-0.5 -1,-0.5 -0.2,-0.3 -0.3,-0.2 -0.3,-0.2 -0.2,-0.3 -1,-0.5 -1,-0.5 -4.5,-4 q -4.5,-4 -6.7,-8.3 -2.3,-4.2 -2.6,-11 -0.20001,-6.7 7.8,-9.2 8.00001,-2.5 25,-2.5 16.99999,0 26.5,1 9.50001,1 13.5,1.5 l 4,0.5 0.2,0.3 0.3,0.2 0,-2 -0.3,-0.2 -0.2,-0.3 -0.2,-0.3 -0.3,-0.2 -0.5,-1 -0.5,-1 -0.5,-1 -0.5,-1 -0.3,-0.2 -0.2,-0.3 -0.2,-0.3 -0.3,-0.2 -0.3,-0.2 q -0.20001,-0.29999 -4.7,-4.8 l -4.5,-4.5 -0.2,-0.3 -0.3,-0.2 -0.3,-0.2 -0.2,-0.3 -0.2,-0.3 -0.3,-0.2 -0.3,-0.2 -0.2,-0.3 -1,-0.5 -1,-0.5 -0.2,-0.3 -0.3,-0.2 -0.3,-0.2 -0.2,-0.3 -1,-0.5 -1,-0.5 3,0 1,0.5 1,0.5 1,0.5 1,0.5 9.2,5.7 q 9.3,5.8 19,13 9.8,7.3 13.8,8.3 4,1 6.5,0.5 2.5,-0.5 5.5,-1 l 3,-0.5 2,-0.5 2,-0.5 -0.2,-0.3 -0.3,-0.2 -0.3,-0.2 -0.2,-0.3 -0.2,-0.3 -0.3,-0.2 -0.3,-0.2 -0.2,-0.3 -0.2,-0.3 -0.3,-0.2 -0.3,-0.2 -0.2,-0.3 -0.2,-0.3 -0.3,-0.2 -0.3,-0.2 -0.2,-0.3 -0.2,-0.3 -0.3,-0.2 -0.3,-0.2 q -0.20001,-0.29999 -11,-14 -10.7,-13.8 -57,-24 l -46.2,-10.3 -2,-0.5 -2,-0.5 0,-0.5 4,0 0,-3 1,0.2 1,0.3 3.5,0.5 q 3.5,0.5 4.5,0.5 l 1,0 1.5,0.3 1.5,0.2 0,-2 -2,0 q -2,0 -2.8,-2 -0.70001,-2 -1,-5 l -0.2,-3 3,-0.5 q 3,-0.5 3.5,0.29999 0.5,0.70001 2.5,1.2 2,0.5 3,1 1,0.5 5,1 4,0.5 5.2,0.79999 1.3,0.20001 1.8,1.2 0.5,1 0.79999,0 0.20001,-1 3.7,0.20001 3.5,1.3 7.5,1.3 4,0 18.5,2.5 14.5,2.5 17.3,3.2 2.7,0.79999 3.4,0.59998 0.79999,-0.29999 8.3,1.7 7.50001,1.99999 11.3,5.3 3.7,3.2 4,4.2 0.20001,1 1.2,1 1,0 2,2.5 1,2.5 2,2.5 1,0 3,4.2 2,4.3 4.2,6.6 2.3,2.2 2.6,3.2 0.20001,1 4,4.5 3.7,3.5 8.7,9 5,5.5 5.3,6.5 0.20001,1 1.4,2 1.3,1 2.6,3 1.2,2 3.4,4 2.3,2 5.3,6 3,4 3.7,5.2 0.79999,1.3 3,4 2.3,2.8 4.3,8.3 2,5.5 0,11.5 -2,6 -6.3,12.5 -4.2,6.5 -5.4,7 -1.3,0.5 -1.6,1.5 -0.20001,1 -2.4,2.5 -2.3,1.5 -2.6,1.5 z m -136,-130.2 q -0.20001,-0.29999 0,-0.59998 0.29999,-0.20001 0.29999,0.29999 0,0.5 -0.29999,0.29999 z m 5,6 q -0.20001,-0.29999 0,-0.59998 0.29999,-0.20001 0.29999,0.29999 l 0,0.5 -0.3,-0.2 z m -13,4 q -0.20001,-0.29999 0,-0.59998 0.29999,-0.20001 0.29999,0.29999 0,0.5 -0.29999,0.29999 z m 2,1 q -0.20001,-0.29999 0,-0.59998 0.29999,-0.20001 0.29999,0.29999 0,0.5 -0.29999,0.29999 z m 131,117 q -0.20001,-0.29999 0,-0.59998 0.29999,-0.20001 0.29999,0.29999 0,0.5 -0.29999,0.29999 z"
       id="svg_22" />
    <path
       style="fill-rule:evenodd;stroke:none;stroke-width:0.5"
       inkscape:connector-curvature="0"
       d="m 36,613 3,0 15.5,5.8 q 15.5,5.7 27,7.7 11.5,2 26.5,2 l 19.5,0 q 4.5,0 3,0.5 l -1.5,0.5 -1,0.5 -1,0.5 -1.5,0.5 -1.5,0.5 -1,0.5 -1,0.5 -7,3.5 q -7,3.5 -8,4 l -1,0.5 -1.5,0.5 -1.5,0.5 -1,0.5 -1,0.5 -1,0.5 -1,0.5 1,0.5 1,0.5 9,1 q 9,1 34.5,0.5 25.5,-0.5 56.5,-5.5 31,-5 42,-7.5 11,-2.5 13,-3 l 2,-0.5 2,-0.5 2,-0.5 2.5,0 q 2.5,0 1,0.5 l -1.5,0.5 -1.5,0.5 -1.5,0.5 -1.5,0.5 -1.5,0.5 -28,14 q -28,14 -50.5,29.5 -22.5,15.5 -42,32 -19.5,16.5 -21,18 -1.5,1.5 -1.7,1.8 l -0.3,0.2 -0.3,0.2 -0.2,0.3 -0.2,0.3 -0.3,0.2 -0.3,0.2 -0.2,0.3 -0.2,0.3 -0.3,0.2 -0.3,0.2 -0.2,0.3 -0.2,0.3 -0.3,0.2 -0.3,0.2 -0.2,0.3 -0.2,0.3 -0.3,0.2 -0.3,0.2 -0.2,0.3 -0.2,0.3 -0.3,0.2 0,2 0.3,-0.2 0.2,-0.3 0.2,-0.3 0.3,-0.2 0.3,-0.2 0.2,-0.3 2.5,-0.5 2.5,-0.5 2.5,-0.5 q 2.5,-0.5 12.5,-2.5 l 10,-2 2.5,-0.5 2.5,-0.5 4,0 -1,0.5 -1,0.5 -0.2,0.3 -0.3,0.2 -0.3,0.2 -0.2,0.3 -1,0.5 -1,0.5 -1,0.5 -1,0.5 -0.2,0.3 -0.3,0.2 -11.3,9.2 q -11.2,9.3 -22,21 -10.7,11.8 -13.7,16.8 -3,5 0,15.5 3,10.5 3.3,12.5 l 0.2,2 0,7 -1.2,-0.5 q -1.3,-0.5 -1.8,1 l -0.5,1.5 -0.5,1.5 -0.5,1.5 -0.3,0.2 -0.2,0.3 -0.2,0.3 -0.3,0.2 -0.5,-1 -0.5,-1 -0.3,-0.2 -0.2,-0.3 -0.2,-0.3 -0.3,-0.2 -0.3,0.2 -0.2,0.3 -1,0.3 -1,0.2 -0.2,-1 q -0.3,-1 -0.60001,-1 l -0.2,0 -0.2,-0.5 q -0.3,-0.5 -0.60001,-0.5 l -0.2,0 -0.2,-0.5 q -0.3,-0.5 -0.60001,-0.5 l -0.4,0 q -0.3,0 -1,-1.8 -0.8,-1.7 -1,-3.4 -0.3,-1.8 -0.8,-4.8 -0.5,-3 -1.5,-6.5 -1,-3.5 -2.3,-4 -1.2,-0.5 -1,-1.5 0.3,-1 -1.4,-2.2 -1.8,-1.3 -0.60001,-4.6 1.3,-3.2 2.6,-5 1.2,-1.7 2.7,-4.4 1.5,-2.8 2.5,-3 1,-0.29999 1.5,-2 0.5,-1.8 1.5,-1.8 1,0 1.2,-1.5 0.3,-1.5 2,-2.5 1.8,-1 4.6,-5 2.7,-4 2,-4.5 -0.8,-0.5 -0.8,-1.5 0,-1 1.5,-0.79999 1.5,0.29999 1.7,-1 l 0.3,-1.2 -0.3,-0.2 q -0.2,-0.29999 0,-0.59998 l 0.3,-0.2 0.3,-0.2 0.2,-0.3 -1,-0.5 -1,-0.5 -1,-0.5 q -1,-0.5 -1.5,-1.8 -0.5,-1.2 -1.5,-1.4 -1,-0.29999 -2.5,0.20001 -1.5,0.5 -2,-1.2 -0.5,-1.8 -3,-2.3 l -2.5,-0.5 0.2,-1 0.3,-1 0.3,-0.2 0.2,-0.3 -0.2,-0.3 -0.3,-0.2 -0.3,-0.2 -0.2,-0.3 1,-0.5 1,-0.5 0.2,-0.3 q 0.3,-0.20001 0.60001,-0.40002 0.2,-0.29999 0.39999,-2.6 0.3,-2.2 4,-5.4 3.8,-3.3 6,-4.6 2.3,-1.2 2.6,-3 0.2,-1.7 4,-4 3.7,-2.2 5.2,-5.2 1.5,-3 3.2,-3.5 1.8,-0.5 1.8,-1.5 0,-1 2,-1.5 2,-0.5 4.5,-4.5 2.5,-4 5,-4.5 2.5,-0.5 2.5,-1.5 0,-1 1,-1.2 1,-0.29999 1.5,-1.6 0.5,-1.2 1.5,-1.4 1,-0.29999 3.5,-3 2.5,-2.8 3.5,-2.8 1,0 1,-1 0,-1 1.5,-0.79999 1.5,0.29999 2.5,-2 1,-2.2 4,-3 3,-0.70001 3.8,-2 0.7,-1.2 -1,-1.2 -1.8,0 -1.8,-1 0,-1 2,-2.2 l 2,-1.3 1,-0.5 1,-0.5 1,-0.5 1,-0.5 0.2,-0.3 0.3,-0.2 0.3,-0.2 0.2,-0.3 -1,-0.3 -1,-0.2 0,-2 -6,0.2 q -6,0.29999 -22.2,0 -16.3,-0.20001 -21.8,-0.70001 -5.5,-0.5 -9.2,-0.5 -3.8,0 -4,-1 -0.3,-1 -9,-1.8 -8.8,-0.70001 -9.3,-1.4 -0.5,-0.79999 -2.5,-1 l -2,-0.3 -1,-0.5 -1,-0.5 -2,-0.5 -2,-0.5 0.2,-0.3 0.3,-0.2 0.5,-1 0.5,-1 0.3,-0.2 0.2,-0.3 0.2,-0.3 q 0.3,-0.20001 1.8,-1.7 1.5,-1.49999 2.2,-2.3 l 0.8,-0.7 0.2,-0.3 0.3,-0.2 0.3,-0.2 0.2,-0.3 0.2,-0.3 0.3,-0.2 0.3,-0.2 0.2,-0.3 -0.2,-0.3 -0.3,-0.2 -0.3,-0.2 -0.2,-0.3 -0.2,-0.3 -0.3,-0.2 -0.3,-0.2 -0.2,-0.3 -0.2,-0.3 -0.3,-0.2 -0.3,0.2 -0.2,0.3 -2.5,0 q -2.5,0 -4.5,-0.29999 -2,-0.20001 -2,-1.2 0,-1 -1,-0.79999 -1,0.29999 -15,-4.7 l -14,-5 -1,-0.5 -1,-0.5 -0.2,-0.3 -0.3,-0.2 -0.3,-0.2 -0.2,-0.3 0,-0.5 0.2,-1 0.3,-1 0.3,0.2 0.2,0.3 0.2,0.3 0.3,0.2 0.3,0.2 0.2,0.3 1,0 0.2,-0.3 0.3,-0.2 0.3,0.2 0.2,0.3 1,0 0.2,-0.3 0.3,-0.2 0.3,-0.2 0.2,-0.3 -0.2,-0.3 -0.3,-0.2 -0.3,-0.2 -0.2,-0.3 -1,-0.3 q -1,-0.20001 -2.2,-2.2 -1.3,-2 -0.8,-3 0.5,-1 2.2,-2.8 1.8,-1.7 1.8,-3.4 0,-1.8 3,-1.8 z m 122.2,51.2 q 0.3,-0.20001 0.60001,0 0.2,0.29999 -0.3,0.29999 -0.5,0 -0.3,-0.29999 z m -3.2,7.8 2,-0.5 0.2,0.3 0.3,0.2 0.3,0.2 0.2,0.3 -0.2,0.3 -0.3,0.2 -0.3,0.2 -0.2,0.3 -0.5,0 q -0.5,0 -2,-0.5 -1.5,-0.5 0.5,-1 z m -49,63 q 1,0 1,1 0,1 -1,1 l -1,0 0,-1 q 0,-1 1,-1 z"
       id="svg_23" />
  </g>
  <g
     inkscape:groupmode="layer"
     id="layer2"
     inkscape:label="Layer 2">
    <circle
       style="opacity:1;fill:#ffffff;fill-opacity:1;fill-rule:nonzero;stroke:#0066ff;stroke-width:100;stroke-linecap:round;stroke-linejoin:round;stroke-miterlimit:4;stroke-dasharray:none;stroke-opacity:1"
       id="path4303"
       cx="438.69833"
       cy="510.28427"
       r="625" />
    <g
       id="g4305"
       transform="translate(20.488332,33.003483)">
      <path
         sodipodi:nodetypes="ccczczc"
         inkscape:connector-curvature="0"
         id="path4301"
         d="M 574.94238,550.74535 C 506.5891,527.99922 431.58621,512.28052 381.32118,466.65251 301.6002,389.06934 362.2308,295.46142 362.2308,295.46142 c 0,0 66.26362,-57.48559 208.28965,-81.15659 142.02602,-23.67101 237.76208,76.79926 237.76208,76.79926 0,0 -136.57665,-32.89228 -214.09108,32.08736 -77.51444,64.97963 -63.95299,128.59327 -19.24907,227.5539 z"
         style="fill:#0000fc;fill-opacity:1;fill-rule:evenodd;stroke:none;stroke-width:1px;stroke-linecap:butt;stroke-linejoin:miter;stroke-opacity:1" />
      <path
         sodipodi:nodetypes="cscscscscsccccsscccsccsssccc"
         inkscape:connector-curvature="0"
         id="path4299"
         d="m 643.8513,44.185874 c 0,0 -245.47119,-25.991621 -397.67286,73.643126 C -2.4642863,280.59629 16.832714,612.28996 16.832714,612.28996 c 0,0 7.364312,26.30112 82.059479,37.87361 72.893607,11.29338 159.910777,-16.83271 159.910777,-16.83271 0,0 -49.05567,17.1004 -99.94423,55.75836 -67.051004,50.93591 -83.111528,74.69517 -83.111528,74.69517 0,0 3.039449,18.20201 46.289958,63.12268 41.55164,43.1562 67.33086,54.70634 67.33086,54.70634 0,0 19.87118,-47.40673 71.53903,-124.14129 55.94187,-83.08212 141.67785,-55.74929 141.67785,-55.74929 83.88312,42.43449 5.18366,27.41832 86.60677,89.00991 27.58653,-15.7497 58.14721,-24.55527 36.76493,26.95212 -6.22642,31.32875 19.40744,53.60924 37.97934,42.31516 0,0 -23.40025,-3.10327 -23.40025,-30.45643 0,-27.35316 63.37795,-39.97769 67.58613,-16.83271 4.20817,23.14498 -8.77737,38.34035 -8.77737,38.34035 47.14857,-35.72238 25.54609,-66.00262 -11.21148,-76.21396 -20.51487,-8.41636 -45.80398,-48.92649 -45.80398,-48.92649 0,0 53.12825,-34.19145 84.16357,-44.7119 31.03531,-10.52044 94.68401,-9.99442 94.68401,-9.99442 l -9.4684,29.45725 c 0,0 28.24263,-4.3312 42.60781,-23.14498 10.48306,-13.72944 6.65137,-26.55185 -1.76499,-51.27489 -8.41635,-24.72305 -24.53613,-42.35708 -45.57702,-50.24742 C 685.93309,568.10409 587.04089,561.2658 574.94238,550.74535 534.31796,527.03065 158.77292,469.50037 465.52974,164.64498 541.0808,80.217798 643.8513,44.185874 643.8513,44.185874 Z"
         style="fill:#4949ff;fill-opacity:1;fill-rule:evenodd;stroke:none;stroke-width:1px;stroke-linecap:butt;stroke-linejoin:miter;stroke-opacity:1" />
    </g>
  </g>
</svg>
